<svg width="83" height="94" viewBox="0 0 83 94" fill="none" xmlns="http://www.w3.org/2000/svg">
<path d="M21.2001 63.83C21.8071 73.6048 20.7452 83.4116 18.0601 92.83C17.9883 93.0853 17.8353 93.3104 17.6242 93.471C17.413 93.6316 17.1553 93.719 16.8901 93.72C16.7803 93.7297 16.6699 93.7297 16.5601 93.72C16.2486 93.6336 15.9841 93.4271 15.8247 93.1458C15.6654 92.8646 15.6241 92.5316 15.7101 92.22C19.0044 80.8167 19.7857 68.8345 18.0001 57.1C17.3926 60.5056 15.8123 63.6627 13.4501 66.19C13.3408 66.318 13.2062 66.422 13.0548 66.4954C12.9034 66.5689 12.7384 66.6102 12.5702 66.6168C12.4021 66.6235 12.2344 66.5952 12.0776 66.5339C11.9209 66.4726 11.7786 66.3795 11.6596 66.2605C11.5406 66.1415 11.4475 65.9991 11.3861 65.8424C11.3248 65.6857 11.2966 65.518 11.3032 65.3498C11.3098 65.1816 11.3512 65.0167 11.4246 64.8652C11.4981 64.7138 11.6021 64.5792 11.7301 64.47C14.8101 61.37 16.3501 56.19 16.3201 49.09C15.116 44.5341 13.5373 40.0856 11.6001 35.79C11.4915 35.4998 11.4973 35.1792 11.6165 34.8932C11.7356 34.6072 11.9591 34.3772 12.2416 34.25C12.5241 34.1227 12.8444 34.1077 13.1376 34.208C13.4307 34.3083 13.6747 34.5164 13.8201 34.79C15.7971 39.1821 17.4158 43.7269 18.6601 48.38C18.7006 48.48 18.7307 48.5838 18.7501 48.69C20.0625 53.6457 20.8996 58.7153 21.2501 63.83H21.2001Z" fill="white"/>
<path d="M82.29 33.51C82.2741 27.2727 79.7866 21.296 75.3724 16.8893C70.9582 12.4826 64.9773 10.0053 58.74 10H56.86C55.8791 10.0149 54.9185 9.72059 54.1143 9.15876C53.3102 8.59693 52.7034 7.79614 52.38 6.87L50.16 0.8C50.1557 0.776868 50.1557 0.753132 50.16 0.73V0.67C50.1488 0.680506 50.1357 0.68871 50.1214 0.694144C50.1071 0.699579 50.0918 0.702137 50.0765 0.701673C50.0455 0.700735 50.0162 0.687543 49.995 0.665C49.9738 0.642457 49.9624 0.612408 49.9633 0.581464C49.9638 0.566143 49.9673 0.551063 49.9736 0.537085C49.9799 0.523107 49.9888 0.510506 50 0.5H49.95H49.9H49.84H49.78H49.72H49.28C46.7059 0.774638 44.1187 0.908171 41.53 0.9C38.8045 0.762452 36.0896 0.461915 33.4 0L33 0H32.95H32.89H32.84H32.78H32.72H32.67V0.05V0.11C32.6657 0.133132 32.6657 0.156868 32.67 0.18L30.46 6.18C30.2501 7.32986 29.6174 8.35954 28.6866 9.06648C27.7557 9.77341 26.594 10.1064 25.43 10H23.55C17.317 10.0079 11.3406 12.4833 6.92753 16.8851C2.51448 21.287 0.0237853 27.257 0 33.49L0 33.59L3.07 86C3.08789 86.3113 3.22428 86.6039 3.45116 86.8178C3.67805 87.0316 3.97821 87.1505 4.29 87.15H4.36C4.52307 87.14 4.68246 87.0973 4.82873 87.0245C4.97499 86.9517 5.10515 86.8503 5.21147 86.7263C5.3178 86.6022 5.39812 86.4581 5.44769 86.3024C5.49725 86.1467 5.51504 85.9827 5.5 85.82L2.44 33.47C2.45323 27.8781 4.68251 22.5195 8.6394 18.5682C12.5963 14.6169 17.9581 12.3953 23.55 12.39H25.43C26.9105 12.3993 28.3574 11.9494 29.5716 11.1023C30.7858 10.2553 31.7076 9.05263 32.21 7.66L34.09 2.53C36.33 2.74 38.7 2.85 41.09 2.85C43.48 2.85 46 2.74 48.2 2.53L50.08 7.66C50.5824 9.05263 51.5042 10.2553 52.7184 11.1023C53.9326 11.9494 55.3795 12.3993 56.86 12.39H58.73C64.3098 12.3925 69.6622 14.602 73.6189 18.5363C77.5757 22.4706 79.8157 27.8103 79.85 33.39L73.73 85.75C73.6934 86.0708 73.7855 86.3931 73.986 86.6461C74.1866 86.8992 74.4793 87.0624 74.8 87.1H74.94C75.2421 87.099 75.5331 86.9859 75.7566 86.7827C75.9801 86.5795 76.1203 86.3006 76.15 86L82.28 33.62V33.56C82.2841 33.5368 82.2841 33.5132 82.28 33.49L82.29 33.51Z" fill="white"/>
<path d="M65.9999 49.0899C67.2056 44.5346 68.7842 40.0862 70.7199 35.7899C70.7982 35.6425 70.8455 35.4806 70.8587 35.3143C70.8719 35.1479 70.8509 34.9806 70.7969 34.8227C70.7428 34.6648 70.657 34.5196 70.5446 34.3962C70.4323 34.2728 70.2958 34.1737 70.1436 34.1052C69.9914 34.0367 69.8268 34.0001 69.6599 33.9977C69.4931 33.9953 69.3275 34.0272 69.1734 34.0914C69.0193 34.1556 68.8801 34.2507 68.7642 34.3708C68.6484 34.491 68.5584 34.6336 68.4999 34.7899C66.5201 39.1809 64.9014 43.726 63.6599 48.3799C63.6194 48.4799 63.5893 48.5838 63.5699 48.6899C62.2687 53.6447 61.4318 58.7099 61.0699 63.8199C60.4627 73.5954 61.5279 83.4028 64.2199 92.8199C64.2867 93.0762 64.437 93.3029 64.6471 93.4641C64.8572 93.6253 65.1151 93.7118 65.3799 93.7099C65.4897 93.7197 65.6002 93.7197 65.7099 93.7099C66.0214 93.6235 66.2859 93.417 66.4453 93.1358C66.6047 92.8545 66.6459 92.5215 66.5599 92.2099C63.2834 80.8097 62.5191 68.8342 64.3199 57.1099C64.9298 60.5119 66.5099 63.665 68.8699 66.1899C69.1034 66.3892 69.4034 66.4932 69.7101 66.4812C70.0168 66.4691 70.3077 66.3418 70.5248 66.1248C70.7418 65.9077 70.8691 65.6168 70.8812 65.3101C70.8933 65.0034 70.7893 64.7034 70.5899 64.4699C67.5199 61.3699 65.9999 56.1899 65.9999 49.0899Z" fill="white"/>
<path d="M53.3699 77.2801C53.2577 76.4106 52.8051 75.6211 52.1114 75.0849C51.4177 74.5487 50.5397 74.3096 49.6699 74.4201L47.9699 74.6401V70.9001L50.5199 70.5701C51.3912 70.4561 52.1814 70.0006 52.7168 69.3039C53.2522 68.6072 53.489 67.7263 53.3749 66.8551C53.2609 65.9839 52.8054 65.1936 52.1087 64.6582C51.412 64.1228 50.5312 63.8861 49.6599 64.0001L47.9599 64.2201V60.4901L50.5099 60.1601C51.3776 60.0455 52.1646 59.5919 52.6987 58.8985C53.2329 58.2051 53.4706 57.3283 53.3599 56.4601C53.2428 55.5935 52.7885 54.8081 52.0958 54.2745C51.403 53.7409 50.5277 53.5021 49.6599 53.6101L47.9599 53.8301V50.0901L50.5099 49.7601C51.3785 49.6474 52.1667 49.1942 52.7012 48.5004C53.2357 47.8065 53.4726 46.9287 53.3599 46.0601C53.2472 45.1915 52.7941 44.4033 52.1002 43.8688C51.4063 43.3343 50.5285 43.0974 49.6599 43.2101L47.9599 43.4201V39.6801L50.5099 39.3501C51.3776 39.2355 52.1646 38.7819 52.6987 38.0885C53.2329 37.3951 53.4706 36.5183 53.3599 35.6501C53.2428 34.7835 52.7885 33.9981 52.0958 33.4645C51.403 32.9309 50.5277 32.6921 49.6599 32.8001L47.9999 33.0001V31.1901C48.0046 31.1704 48.0046 31.1498 47.9999 31.1301V31.0701C47.9999 31.0701 47.9999 31.0201 47.9999 31.0001C47.9986 30.9768 47.9986 30.9534 47.9999 30.9301V30.8601C47.9999 30.8601 47.9999 30.8601 47.9999 30.8101V30.7601V30.7101V30.6601V30.6101H47.9399H47.8799H47.8199H47.7499H47.6899H47.1999C45.4566 31.0201 43.6708 31.2215 41.8799 31.2101C40.089 31.2226 38.303 31.0212 36.5599 30.6101H36.0399H35.9799H35.9199H35.8599H35.8099C35.8099 30.6101 35.8099 30.6101 35.8099 30.6601V30.7201V30.7801C35.807 30.8 35.807 30.8202 35.8099 30.8401C35.8099 30.8401 35.8099 30.8401 35.8099 30.8901C35.8076 30.9134 35.8076 30.9368 35.8099 30.9601C35.8066 30.9833 35.8066 31.0069 35.8099 31.0301C35.8148 31.0532 35.8148 31.077 35.8099 31.1001C35.8146 31.1198 35.8146 31.1404 35.8099 31.1601V33.0001L34.1099 32.7801C33.2413 32.6674 32.3635 32.9043 31.6697 33.4388C30.9758 33.9733 30.5226 34.7615 30.4099 35.6301C30.2972 36.4987 30.5341 37.3765 31.0686 38.0704C31.6031 38.7642 32.3913 39.2174 33.2599 39.3301L35.8099 39.6601V43.4001L34.1099 43.1901C33.2417 43.0794 32.365 43.3172 31.6716 43.8513C30.9782 44.3854 30.5245 45.1724 30.4099 46.0401C30.2993 46.9083 30.537 47.7851 31.0711 48.4785C31.6052 49.1719 32.3922 49.6255 33.2599 49.7401L35.8099 50.0701V53.8101L34.1099 53.5901C33.2413 53.4774 32.3635 53.7143 31.6697 54.2488C30.9758 54.7833 30.5226 55.5715 30.4099 56.4401C30.2972 57.3087 30.5341 58.1865 31.0686 58.8804C31.6031 59.5742 32.3913 60.0274 33.2599 60.1401L35.8099 60.4701V64.2201L32.5999 64.0001C32.1698 63.9443 31.733 63.9737 31.3143 64.0868C30.8956 64.1998 30.5032 64.3942 30.1597 64.6588C29.8161 64.9235 29.528 65.2532 29.3119 65.6292C29.0957 66.0052 28.9557 66.42 28.8999 66.8501C28.8441 67.2802 28.8735 67.7171 28.9866 68.1357C29.0996 68.5544 29.294 68.9468 29.5586 69.2904C29.8233 69.6339 30.153 69.922 30.529 70.1382C30.905 70.3543 31.3198 70.4943 31.7499 70.5501L34.2999 70.8801V74.6201L32.5999 74.4001C32.169 74.344 31.7313 74.3736 31.3119 74.4871C30.8925 74.6006 30.4996 74.7959 30.1559 75.0616C29.8121 75.3273 29.5242 75.6583 29.3086 76.0356C29.0931 76.4129 28.9542 76.829 28.8999 77.2601C28.8408 77.6929 28.8677 78.1331 28.979 78.5555C29.0904 78.9779 29.284 79.3742 29.5487 79.7216C29.8135 80.069 30.1442 80.3608 30.5219 80.5802C30.8996 80.7996 31.3169 80.9423 31.7499 81.0001L34.2999 81.3201V83.4801C34.2986 83.5034 34.2986 83.5268 34.2999 83.5501C34.2999 83.5501 34.2999 83.5501 34.2999 83.6101C34.3043 83.6299 34.3043 83.6503 34.2999 83.6701V83.7301V83.7901V83.8401V83.9001H34.3499H34.4099H34.4599H34.5199H34.5799H34.6499C38.661 85.0749 42.8938 85.2805 46.9999 84.5001H47.0699H47.1299H47.1899H47.2499H47.2999V84.4401V84.3901V84.3301V84.2701C47.2956 84.2503 47.2956 84.2299 47.2999 84.2101C47.2999 84.2101 47.2999 84.2101 47.2999 84.1501C47.3012 84.1268 47.3012 84.1034 47.2999 84.0801V81.3001L50.5199 81.0001C51.3886 80.8816 52.1756 80.4252 52.7099 79.7301C52.9776 79.3863 53.1739 78.9925 53.2872 78.5717C53.4006 78.151 53.4287 77.7119 53.3699 77.2801ZM32.0799 36.9301C31.8506 36.894 31.6434 36.7726 31.4999 36.5901C31.4307 36.5 31.38 36.397 31.3508 36.2871C31.3217 36.1773 31.3146 36.0627 31.3299 35.9501C31.3419 35.8373 31.3775 35.7282 31.4344 35.6301C31.4912 35.5319 31.5681 35.4467 31.6599 35.3801C31.7493 35.3091 31.8519 35.2567 31.9618 35.2258C32.0717 35.1949 32.1866 35.1861 32.2999 35.2001L35.3699 35.6001H35.7999H35.8799H35.9499H36.0199H36.0799H36.1299H36.1799V35.5501V35.5001V35.4401C36.1756 35.4203 36.1756 35.3999 36.1799 35.3801C36.1799 35.3801 36.1799 35.3801 36.1799 35.3201C36.1799 35.2601 36.1799 35.3201 36.1799 35.2701C36.1799 35.2201 36.1799 35.2701 36.1799 35.2001V35.1201C36.1799 35.1201 36.1799 35.1201 36.1799 35.0601V32.7701C37.6303 33.0153 39.099 33.1357 40.5699 33.1301C42.0446 33.1368 43.517 33.013 44.9699 32.7601V34.5401C44.9748 34.5632 44.9748 34.587 44.9699 34.6101C44.9699 34.6101 44.9699 34.6101 44.9699 34.6601C44.9699 34.7101 44.9699 34.6601 44.9699 34.7301V34.7901C44.9699 34.7901 44.9699 34.7901 44.9699 34.8501V34.9101V34.9701V35.0301L45.0499 35.1101H45.1099H45.1799H45.2499H45.3199H45.3699H45.7599L49.9999 35.2001C50.1189 35.1818 50.2404 35.1884 50.3566 35.2195C50.4729 35.2506 50.5815 35.3055 50.6755 35.3807C50.7695 35.4559 50.8468 35.5497 50.9027 35.6564C50.9585 35.763 50.9916 35.88 50.9999 36.0001C51.0163 36.1134 51.0087 36.2289 50.9777 36.3392C50.9467 36.4494 50.8929 36.5519 50.8199 36.6401C50.7522 36.7317 50.6669 36.8089 50.569 36.8673C50.4712 36.9257 50.3627 36.964 50.2499 36.9801L46.6399 37.4401H46.4799H46.4199H46.3599H46.2999H46.2499H46.1999V37.5001C46.1999 37.5001 46.1999 37.5001 46.1999 37.5501V37.6101V37.6601C46.1956 37.6799 46.1956 37.7003 46.1999 37.7201C46.1999 37.7201 46.1999 37.7201 46.1999 37.7801C46.2054 37.8031 46.2054 37.8271 46.1999 37.8501C46.1999 37.8501 46.1999 37.8501 46.1999 37.9001V40.7001C43.2942 41.2333 40.3157 41.2333 37.4099 40.7001V38.4901C37.4161 38.474 37.4161 38.4562 37.4099 38.4401C37.4099 38.4401 37.4099 38.4401 37.4099 38.3701C37.4099 38.3701 37.4099 38.3701 37.4099 38.3101C37.4099 38.2501 37.4099 38.3101 37.4099 38.2501C37.4099 38.1901 37.4099 38.2501 37.4099 38.1901V38.1301V38.0801H37.3599H37.2999H37.2399H37.1899H37.1199H36.9599L32.0799 36.9301ZM32.0799 47.3401C31.9645 47.3256 31.8533 47.2878 31.7529 47.2291C31.6526 47.1704 31.5652 47.0919 31.496 46.9984C31.4268 46.9049 31.3773 46.7984 31.3505 46.6852C31.3237 46.5721 31.3201 46.4547 31.3399 46.3401C31.3745 46.113 31.4965 45.9084 31.6799 45.7701C31.8629 45.6315 32.0915 45.5672 32.3199 45.5901L35.3899 45.9901H35.8099H35.8999H35.9799H36.0499H36.1199H36.1799L36.2399 45.9401C36.2399 45.9401 36.2399 45.9401 36.2399 45.8901C36.2428 45.8702 36.2428 45.85 36.2399 45.8301V45.7701C36.2356 45.7503 36.2356 45.7299 36.2399 45.7101C36.2399 45.7101 36.2399 45.6601 36.2399 45.6401C36.2409 45.6235 36.2409 45.6068 36.2399 45.5901C36.2448 45.567 36.2448 45.5432 36.2399 45.5201V45.4501C36.2399 45.4501 36.2399 45.4501 36.2399 45.3801V43.1601C39.1492 43.6534 42.1207 43.6534 45.0299 43.1601V44.8701C45.0252 44.8898 45.0252 44.9104 45.0299 44.9301C45.0299 44.9301 45.0299 44.9801 45.0299 45.0001C45.0238 45.0162 45.0238 45.034 45.0299 45.0501C45.0266 45.0733 45.0266 45.0969 45.0299 45.1201C45.0256 45.1399 45.0256 45.1603 45.0299 45.1801C45.0299 45.1801 45.0299 45.1801 45.0299 45.2401C45.028 45.2634 45.028 45.2868 45.0299 45.3101L45.0799 45.3801L45.1399 45.4501L45.1999 45.5001H45.2699H45.3399H45.4099H45.4799H45.5599H45.9799L49.9999 45.6001C50.2293 45.5709 50.4609 45.6341 50.6438 45.7757C50.8266 45.9173 50.9457 46.1257 50.9749 46.3551C51.0041 46.5845 50.9409 46.8161 50.7993 46.999C50.6578 47.1818 50.4493 47.3009 50.2199 47.3301L46.6099 47.7901H46.4499H46.3899H46.3299H46.2699H46.2199V47.8401V47.8901C46.2199 47.8901 46.2199 47.8901 46.2199 47.9501C46.2199 48.0101 46.2199 47.9501 46.2199 48.0001C46.2199 48.0501 46.2199 48.0001 46.2199 48.0601C46.2199 48.1201 46.2199 48.0601 46.2199 48.1201C46.2199 48.1801 46.2199 48.1201 46.2199 48.1801C46.2199 48.2401 46.2199 48.1801 46.2199 48.2401V49.0001V51.1001C44.7735 51.3797 43.3031 51.517 41.8299 51.5101C40.3534 51.516 38.8799 51.3787 37.4299 51.1001V48.8901C37.4299 48.8901 37.4299 48.8901 37.4299 48.8301C37.4252 48.8104 37.4252 48.7898 37.4299 48.7701C37.4299 48.7701 37.4299 48.7701 37.4299 48.7101C37.4299 48.6501 37.4299 48.7101 37.4299 48.6501C37.4299 48.5901 37.4299 48.6501 37.4299 48.6001V48.5401V48.4901C37.4135 48.4859 37.3963 48.4859 37.3799 48.4901H37.3299H37.2699H37.2099H37.1599H37.0899H36.9299L32.0799 47.3401ZM32.0799 57.7401C31.9637 57.7268 31.8513 57.69 31.7498 57.6318C31.6483 57.5736 31.5597 57.4953 31.4895 57.4017C31.4193 57.308 31.3689 57.2011 31.3415 57.0873C31.3141 56.9736 31.3101 56.8554 31.3299 56.7401C31.3625 56.512 31.4804 56.3047 31.6599 56.1601C31.844 56.0248 32.0738 55.9674 32.2999 56.0001L35.3799 56.4001H35.8099H35.8799H35.9399H35.9899H36.0499L36.1299 56.3201H36.1799V56.2601V56.2001V56.1401C36.1799 56.1401 36.1799 56.1401 36.1799 56.0801C36.1799 56.0201 36.1799 56.0801 36.1799 56.0301C36.1812 56.0068 36.1812 55.9834 36.1799 55.9601C36.1799 55.9601 36.1799 55.9601 36.1799 55.8801C36.1799 55.8801 36.1799 55.8301 36.1799 55.8101V54.1101C39.0902 54.5902 42.0596 54.5902 44.9699 54.1101V55.8101C44.9658 55.8333 44.9658 55.857 44.9699 55.8801C44.965 55.9066 44.965 55.9337 44.9699 55.9601C44.9699 55.9601 44.9699 55.9601 44.9699 56.0101C44.9699 56.0601 44.9699 56.0101 44.9699 56.0701V56.1301V56.2001V56.2701L45.0299 56.3301L45.0799 56.3901L45.1499 56.4501L45.2199 56.5101L45.2999 56.5601H45.3799H45.4699H45.5599H45.9799L49.9999 56.0001C50.1149 55.9832 50.2321 55.9892 50.3447 56.0178C50.4574 56.0463 50.5632 56.097 50.6562 56.1667C50.7492 56.2364 50.8274 56.3239 50.8864 56.424C50.9454 56.5242 50.984 56.635 50.9999 56.7501C51.0153 56.865 51.0072 56.9818 50.9763 57.0935C50.9454 57.2052 50.8922 57.3095 50.8199 57.4001C50.6798 57.5797 50.4755 57.698 50.2499 57.7301L46.6399 58.1901H46.4799H46.4199H46.3599H46.2999H46.2499H46.1999V58.2401V58.3001C46.1956 58.3199 46.1956 58.3403 46.1999 58.3601C46.1999 58.3601 46.1999 58.3601 46.1999 58.4201C46.1999 58.4801 46.1999 58.4801 46.1999 58.5401L46.1999 60.7501C43.2954 61.2968 40.3144 61.2968 37.4099 60.7501V58.6501V59.3001C37.4099 59.3001 37.4099 59.3001 37.4099 59.2401C37.4099 59.1801 37.4099 59.2401 37.4099 59.1801C37.4099 59.1201 37.4099 59.1801 37.4099 59.1201V59.0601C37.4099 59.0601 37.4099 59.0601 37.4099 59.0001V58.9501H37.3599H37.2999H37.2399H37.1899H37.1199H37.0699H36.9999L32.0799 57.7401ZM32.0799 68.1501C31.9631 68.1382 31.8499 68.1023 31.7477 68.0445C31.6454 67.9867 31.5563 67.9084 31.4858 67.8145C31.4153 67.7205 31.3651 67.613 31.3383 67.4986C31.3114 67.3843 31.3086 67.2656 31.3299 67.1501C31.3419 67.0373 31.3775 66.9282 31.4344 66.83C31.4912 66.7319 31.5681 66.6467 31.6599 66.5801C31.7481 66.5071 31.8506 66.4533 31.9609 66.4223C32.0711 66.3913 32.1866 66.3838 32.2999 66.4001L35.3699 66.8001H35.7999H35.8699H35.9199H35.9799H36.0299H36.0899H36.1399V66.7501V66.7001C36.1399 66.7001 36.1399 66.7001 36.1399 66.6401C36.1443 66.6203 36.1443 66.5999 36.1399 66.5801C36.1458 66.5572 36.1458 66.5331 36.1399 66.5101C36.1342 66.4837 36.1342 66.4565 36.1399 66.4301V66.2701V64.6301C39.0502 65.1102 42.0196 65.1102 44.9299 64.6301V66.2701C44.9299 66.2701 44.9299 66.2701 44.9299 66.3301V66.4101C44.9299 66.4101 44.9299 66.4101 44.9299 66.4801C44.9312 66.5034 44.9312 66.5268 44.9299 66.5501C44.9299 66.5501 44.9299 66.5501 44.9299 66.6001C44.9343 66.6199 44.9343 66.6403 44.9299 66.6601V66.7201V66.7901C44.928 66.8134 44.928 66.8368 44.9299 66.8601V66.9201H44.9899H45.0499H45.1199H45.1899H45.2699H45.3499H45.4299H45.7399L48.8199 66.5201C48.9376 66.495 49.0592 66.4946 49.1771 66.5189C49.2949 66.5432 49.4064 66.5916 49.5046 66.6612C49.6028 66.7308 49.6854 66.82 49.7474 66.9232C49.8093 67.0263 49.8491 67.1412 49.8644 67.2606C49.8797 67.3799 49.87 67.5012 49.836 67.6166C49.8021 67.732 49.7445 67.8391 49.667 67.9312C49.5896 68.0233 49.4938 68.0983 49.3859 68.1514C49.2779 68.2046 49.1601 68.2348 49.0399 68.2401L45.4299 68.7101H45.2699H45.2099H45.1499H45.0899H45.0399V68.7701V68.8301C45.0399 68.8301 45.0399 68.8301 45.0399 68.8901C45.0399 68.8901 45.0399 68.8901 45.0399 68.9501C45.0399 69.0101 45.0399 68.9501 45.0399 69.0101C45.0399 69.0101 45.0399 69.0101 45.0399 69.0801V69.1501V71.2501C43.5924 71.5212 42.1226 71.6552 40.6499 71.6501C39.174 71.6542 37.7009 71.5203 36.2499 71.2501V69.7101C36.2499 69.7101 36.2499 69.7101 36.2499 69.6401C36.2499 69.6401 36.2499 69.6401 36.2499 69.5801C36.2499 69.5201 36.2499 69.5801 36.2499 69.5201V69.4601V69.4101V69.3601C36.2335 69.3559 36.2163 69.3559 36.1999 69.3601H36.1499H36.0899H36.0299H35.9799H35.9099H35.8599H35.7899L32.0799 68.1501ZM50.7999 78.2301C50.6598 78.4097 50.4555 78.528 50.2299 78.5601L46.6199 79.0001H46.4599H46.3999H46.3399H46.2899H46.2299H46.1799V79.0501C46.1799 79.0501 46.1799 79.0501 46.1799 79.1101C46.1756 79.1299 46.1756 79.1503 46.1799 79.1701C46.1799 79.1701 46.1799 79.1701 46.1799 79.2301C46.1798 79.29 46.1798 79.29 46.1798 79.3498C46.1799 79.3501 46.1799 79.3501 46.1799 79.4001V81.6101C43.2754 82.1568 40.2944 82.1568 37.3899 81.6101V79.5101V79.4401C37.3838 79.424 37.3838 79.4062 37.3899 79.3901C37.3899 79.3901 37.3899 79.3901 37.3899 79.3301C37.3899 79.2701 37.3899 79.3301 37.3899 79.2701C37.3899 79.2101 37.3899 79.2701 37.3899 79.2101C37.3899 79.1501 37.3899 79.2101 37.3899 79.1501C37.3899 79.1501 37.3899 79.1501 37.3899 79.0901V79.0401H37.3399H37.2799H37.2299H37.1699H37.0999H37.0299L33.4199 78.5701C33.1944 78.538 32.99 78.4197 32.8499 78.2401C32.7113 78.0571 32.647 77.8285 32.6699 77.6001C32.702 77.3694 32.8243 77.1608 33.0099 77.0201C33.1001 76.9509 33.203 76.9002 33.3129 76.871C33.4227 76.8419 33.5373 76.8347 33.6499 76.8501L36.7199 77.2501H37.1399H37.2299H37.3099H37.3799H37.4499H37.5099L37.5699 77.1901L37.6299 77.1301V77.0701C37.627 77.0502 37.627 77.03 37.6299 77.0101C37.6299 77.0101 37.6299 77.0101 37.6299 76.9601V76.9001C37.6275 76.8835 37.6275 76.8667 37.6299 76.8501C37.6286 76.8268 37.6286 76.8034 37.6299 76.7801C37.6348 76.757 37.6348 76.7332 37.6299 76.7101V76.1001C37.6299 76.1001 37.6299 76.1001 37.6299 76.0401V74.4001C40.5402 74.8802 43.5096 74.8802 46.4199 74.4001V76.1001C46.4144 76.1231 46.4144 76.1471 46.4199 76.1701C46.4199 76.1701 46.4199 76.1701 46.4199 76.2401C46.414 76.2631 46.414 76.2871 46.4199 76.3101C46.4156 76.3299 46.4156 76.3503 46.4199 76.3701V76.4301V76.5001C46.442 76.5191 46.4592 76.5431 46.4699 76.5701C46.4699 76.5701 46.4699 76.5701 46.5299 76.6301L45.9999 77.0001H46.0699H46.1399H46.2199H46.2999H46.3799H46.7999L49.9999 76.8301C50.2317 76.7986 50.4666 76.8596 50.6537 77C50.8409 77.1404 50.9652 77.3488 50.9999 77.5801C51.0125 77.6964 51.0013 77.814 50.9669 77.9257C50.9325 78.0375 50.8757 78.1411 50.7999 78.2301Z" fill="white"/>
</svg>
