<svg width="79" height="79" id="fast-svg-path" viewBox="0 0 79 79" fill="none" xmlns="http://www.w3.org/2000/svg">
<path fill-rule="evenodd" clip-rule="evenodd" d="M28.0888 46.8146C28.674 47.3998 28.674 48.2776 28.0888 48.8628C27.5037 49.448 26.6259 49.448 26.0407 48.8628C25.4555 48.2776 25.4555 47.3998 26.0407 46.8146C26.6259 46.2294 27.5037 46.2294 28.0888 46.8146Z" fill="white"/>
<path fill-rule="evenodd" clip-rule="evenodd" d="M30.1371 42.7185C29.5519 43.3037 28.6741 43.3037 28.0889 42.7185C27.5037 42.1333 27.5037 41.2555 28.0889 40.6703C28.6741 40.0851 29.5519 40.0851 30.1371 40.6703C30.7222 41.2555 30.7222 42.1333 30.1371 42.7185Z" fill="white"/>
<path fill-rule="evenodd" clip-rule="evenodd" d="M32.1852 50.9111C32.7703 51.4962 32.7703 52.374 32.1852 52.9592C31.6 53.5444 30.7222 53.5444 30.137 52.9592C29.5518 52.374 29.5518 51.4962 30.137 50.9111C30.7222 50.3259 31.6 50.3259 32.1852 50.9111Z" fill="white"/>
<path fill-rule="evenodd" clip-rule="evenodd" d="M34.2334 44.7665C34.8186 45.3517 34.8186 46.2295 34.2334 46.8147C33.6482 47.3999 32.7704 47.3999 32.1852 46.8147C31.6 46.2295 31.6 45.3517 32.1852 44.7665C32.7704 44.1813 33.6482 44.1813 34.2334 44.7665Z" fill="white"/>
<path fill-rule="evenodd" clip-rule="evenodd" d="M36.2815 40.6701C35.6963 41.2553 34.8185 41.2553 34.2333 40.6701C33.6481 40.085 33.6481 39.2072 34.2333 38.622C34.8185 38.0368 35.6963 38.0368 36.2815 38.622C36.8667 38.9146 36.8667 40.085 36.2815 40.6701Z" fill="white"/>
<path d="M37.4519 51.2035C38.2598 51.2035 38.9148 50.5485 38.9148 49.7406C38.9148 48.9326 38.2598 48.2776 37.4519 48.2776C36.6439 48.2776 35.9889 48.9326 35.9889 49.7406C35.9889 50.5485 36.6439 51.2035 37.4519 51.2035Z" fill="white"/>
<path d="M37.4519 34.8185C38.2598 34.8185 38.9148 34.1635 38.9148 33.3555C38.9148 32.5476 38.2598 31.8926 37.4519 31.8926C36.6439 31.8926 35.9889 32.5476 35.9889 33.3555C35.9889 34.1635 36.6439 34.8185 37.4519 34.8185Z" fill="white"/>
<path d="M39.5 45.0592C40.3079 45.0592 40.9629 44.4042 40.9629 43.5963C40.9629 42.7883 40.3079 42.1333 39.5 42.1333C38.692 42.1333 38.037 42.7883 38.037 43.5963C38.037 44.4042 38.692 45.0592 39.5 45.0592Z" fill="white"/>
<path d="M41.5482 38.9147C42.3561 38.9147 43.0111 38.2597 43.0111 37.4517C43.0111 36.6438 42.3561 35.9888 41.5482 35.9888C40.7402 35.9888 40.0852 36.6438 40.0852 37.4517C40.0852 38.2597 40.7402 38.9147 41.5482 38.9147Z" fill="white"/>
<path d="M43.5963 32.7702C44.4042 32.7702 45.0592 32.1152 45.0592 31.3072C45.0592 30.4992 44.4042 29.8442 43.5963 29.8442C42.7883 29.8442 42.1333 30.4992 42.1333 31.3072C42.1333 32.1152 42.7883 32.7702 43.5963 32.7702Z" fill="white"/>
<path fill-rule="evenodd" clip-rule="evenodd" d="M46.8148 40.6703C47.4 41.2555 47.4 42.1333 46.8148 42.7185C46.2296 43.3037 45.3518 43.3037 44.7666 42.7185C44.1815 42.1333 44.1815 41.2555 44.7666 40.6703C45.3518 40.0851 46.2296 40.0851 46.8148 40.6703Z" fill="white"/>
<path fill-rule="evenodd" clip-rule="evenodd" d="M44.7666 26.0407C44.1815 25.4556 44.1815 24.5778 44.7666 23.9926C45.3518 23.4074 46.2296 23.4074 46.8148 23.9926C47.4 24.5778 47.4 25.4556 46.8148 26.0407C46.2296 26.6259 45.3518 26.6259 44.7666 26.0407Z" fill="white"/>
<path fill-rule="evenodd" clip-rule="evenodd" d="M48.863 34.2333C49.4482 34.8185 49.4482 35.6963 48.863 36.2815C48.2778 36.8667 47.4001 36.8667 46.8149 36.2815C46.2297 35.6963 46.2297 34.8185 46.8149 34.2333C47.4001 33.6481 48.2778 33.6481 48.863 34.2333Z" fill="white"/>
<path d="M49.7408 30.7221C50.5488 30.7221 51.2038 30.0671 51.2038 29.2591C51.2038 28.4511 50.5488 27.7961 49.7408 27.7961C48.9328 27.7961 48.2778 28.4511 48.2778 29.2591C48.2778 30.0671 48.9328 30.7221 49.7408 30.7221Z" fill="white"/>
<path fill-rule="evenodd" clip-rule="evenodd" d="M55.0074 32.185C55.5926 32.7702 55.5926 33.6479 55.0074 34.2331C54.4222 34.8183 53.5445 34.8183 52.9593 34.2331C52.3741 33.6479 52.3741 32.7702 52.9593 32.185C53.5445 31.5998 54.4222 31.5998 55.0074 32.185Z" fill="white"/>
<path fill-rule="evenodd" clip-rule="evenodd" d="M61.1518 30.1369L48.5704 17.5554C46.8148 15.7999 44.1815 15.7999 42.4259 17.5554L17.5556 42.4258C15.8 44.1814 15.8 46.8147 17.5556 48.5702L30.137 61.1517C31.8926 62.9073 34.5259 62.9073 36.2815 61.1517L61.1518 36.2814C62.9074 34.5258 62.9074 31.8925 61.1518 30.1369ZM59.1037 34.2332L34.2333 59.1036C33.6481 59.6888 32.7704 59.6888 32.1852 59.1036L19.6037 46.5221C19.0185 45.9369 19.0185 45.0591 19.6037 44.474L44.4741 19.6036C45.0593 19.0184 45.937 19.0184 46.5222 19.6036L59.1037 32.1851C59.6889 32.7702 59.6889 33.648 59.1037 34.2332Z" fill="white"/>
<path fill-rule="evenodd" clip-rule="evenodd" d="M67.5889 39.4999L74.6111 32.4777C80.463 26.6258 80.463 16.9703 74.6111 11.1184L68.1741 4.68137C62.3222 -1.17048 52.6667 -1.17048 46.8148 4.68137L39.7926 11.7036L32.7704 4.68137C26.9185 -1.17048 17.263 -1.17048 11.4111 4.68137L4.38889 11.1184C-1.46296 16.9703 -1.46296 26.6258 4.38889 32.4777L11.4111 39.4999L4.38889 46.5221C-1.46296 52.374 -1.46296 62.0295 4.38889 67.8814L10.8259 74.3184C16.6778 80.1703 26.3333 80.1703 32.1852 74.3184L39.2074 67.2962L46.2296 74.3184C52.0815 80.1703 61.737 80.1703 67.5889 74.3184L74.0259 67.8814C79.8778 62.0295 79.8778 52.374 74.0259 46.5221L67.5889 39.4999ZM6.43704 30.4295C1.75556 25.748 1.75556 17.848 6.43704 13.1666L12.8741 6.72952C17.5556 2.04804 25.4556 2.04804 30.137 6.72952L37.1593 13.7517L13.1667 37.7443L6.43704 30.4295ZM30.4296 72.5628C25.7481 77.2443 17.8481 77.2443 13.1667 72.5628L6.72963 66.1258C2.04815 61.4443 2.04815 53.5443 6.72963 48.8628L48.5704 6.43692C53.2519 1.75544 61.1519 1.75544 65.8333 6.43692L72.2704 12.874C76.9519 17.5554 76.9519 25.4554 72.2704 30.1369L30.4296 72.5628ZM72.563 65.8332L66.1259 72.2703C61.4444 76.9517 53.5444 76.9517 48.863 72.2703L41.8407 65.248L65.8333 41.2554L72.8556 48.2777C77.2444 53.2517 77.2444 61.1517 72.563 65.8332Z" fill="white"/>
<path fill-rule="evenodd" clip-rule="evenodd" d="M28.0888 46.8146C28.674 47.3998 28.674 48.2776 28.0888 48.8628C27.5037 49.448 26.6259 49.448 26.0407 48.8628C25.4555 48.2776 25.4555 47.3998 26.0407 46.8146C26.6259 46.2294 27.5037 46.2294 28.0888 46.8146Z" fill="white"/>
<path fill-rule="evenodd" clip-rule="evenodd" d="M30.1371 42.7185C29.5519 43.3037 28.6741 43.3037 28.0889 42.7185C27.5037 42.1333 27.5037 41.2555 28.0889 40.6703C28.6741 40.0851 29.5519 40.0851 30.1371 40.6703C30.7222 41.2555 30.7222 42.1333 30.1371 42.7185Z" fill="white"/>
<path fill-rule="evenodd" clip-rule="evenodd" d="M32.1852 50.9111C32.7703 51.4962 32.7703 52.374 32.1852 52.9592C31.6 53.5444 30.7222 53.5444 30.137 52.9592C29.5518 52.374 29.5518 51.4962 30.137 50.9111C30.7222 50.3259 31.6 50.3259 32.1852 50.9111Z" fill="white"/>
<path fill-rule="evenodd" clip-rule="evenodd" d="M34.2334 44.7665C34.8186 45.3517 34.8186 46.2295 34.2334 46.8147C33.6482 47.3999 32.7704 47.3999 32.1852 46.8147C31.6 46.2295 31.6 45.3517 32.1852 44.7665C32.7704 44.1813 33.6482 44.1813 34.2334 44.7665Z" fill="white"/>
<path fill-rule="evenodd" clip-rule="evenodd" d="M36.2815 40.6701C35.6963 41.2553 34.8185 41.2553 34.2333 40.6701C33.6481 40.085 33.6481 39.2072 34.2333 38.622C34.8185 38.0368 35.6963 38.0368 36.2815 38.622C36.8667 38.9146 36.8667 40.085 36.2815 40.6701Z" fill="white"/>
<path d="M37.4519 51.2035C38.2598 51.2035 38.9148 50.5485 38.9148 49.7406C38.9148 48.9326 38.2598 48.2776 37.4519 48.2776C36.6439 48.2776 35.9889 48.9326 35.9889 49.7406C35.9889 50.5485 36.6439 51.2035 37.4519 51.2035Z" fill="white"/>
<path d="M37.4519 34.8185C38.2598 34.8185 38.9148 34.1635 38.9148 33.3555C38.9148 32.5476 38.2598 31.8926 37.4519 31.8926C36.6439 31.8926 35.9889 32.5476 35.9889 33.3555C35.9889 34.1635 36.6439 34.8185 37.4519 34.8185Z" fill="white"/>
<path d="M39.5 45.0592C40.3079 45.0592 40.9629 44.4042 40.9629 43.5963C40.9629 42.7883 40.3079 42.1333 39.5 42.1333C38.692 42.1333 38.037 42.7883 38.037 43.5963C38.037 44.4042 38.692 45.0592 39.5 45.0592Z" fill="white"/>
<path d="M41.5482 38.9147C42.3561 38.9147 43.0111 38.2597 43.0111 37.4517C43.0111 36.6438 42.3561 35.9888 41.5482 35.9888C40.7402 35.9888 40.0852 36.6438 40.0852 37.4517C40.0852 38.2597 40.7402 38.9147 41.5482 38.9147Z" fill="white"/>
<path d="M43.5963 32.7702C44.4042 32.7702 45.0592 32.1152 45.0592 31.3072C45.0592 30.4992 44.4042 29.8442 43.5963 29.8442C42.7883 29.8442 42.1333 30.4992 42.1333 31.3072C42.1333 32.1152 42.7883 32.7702 43.5963 32.7702Z" fill="white"/>
<path fill-rule="evenodd" clip-rule="evenodd" d="M46.8148 40.6703C47.4 41.2555 47.4 42.1333 46.8148 42.7185C46.2296 43.3037 45.3518 43.3037 44.7666 42.7185C44.1815 42.1333 44.1815 41.2555 44.7666 40.6703C45.3518 40.0851 46.2296 40.0851 46.8148 40.6703Z" fill="white"/>
<path fill-rule="evenodd" clip-rule="evenodd" d="M44.7666 26.0407C44.1815 25.4556 44.1815 24.5778 44.7666 23.9926C45.3518 23.4074 46.2296 23.4074 46.8148 23.9926C47.4 24.5778 47.4 25.4556 46.8148 26.0407C46.2296 26.6259 45.3518 26.6259 44.7666 26.0407Z" fill="white"/>
<path fill-rule="evenodd" clip-rule="evenodd" d="M48.863 34.2333C49.4482 34.8185 49.4482 35.6963 48.863 36.2815C48.2778 36.8667 47.4001 36.8667 46.8149 36.2815C46.2297 35.6963 46.2297 34.8185 46.8149 34.2333C47.4001 33.6481 48.2778 33.6481 48.863 34.2333Z" fill="white"/>
<path d="M49.7408 30.7221C50.5488 30.7221 51.2038 30.0671 51.2038 29.2591C51.2038 28.4511 50.5488 27.7961 49.7408 27.7961C48.9328 27.7961 48.2778 28.4511 48.2778 29.2591C48.2778 30.0671 48.9328 30.7221 49.7408 30.7221Z" fill="white"/>
<path fill-rule="evenodd" clip-rule="evenodd" d="M55.0074 32.185C55.5926 32.7702 55.5926 33.6479 55.0074 34.2331C54.4222 34.8183 53.5445 34.8183 52.9593 34.2331C52.3741 33.6479 52.3741 32.7702 52.9593 32.185C53.5445 31.5998 54.4222 31.5998 55.0074 32.185Z" fill="white"/>
<path fill-rule="evenodd" clip-rule="evenodd" d="M61.1518 30.1369L48.5704 17.5554C46.8148 15.7999 44.1815 15.7999 42.4259 17.5554L17.5556 42.4258C15.8 44.1814 15.8 46.8147 17.5556 48.5702L30.137 61.1517C31.8926 62.9073 34.5259 62.9073 36.2815 61.1517L61.1518 36.2814C62.9074 34.5258 62.9074 31.8925 61.1518 30.1369ZM59.1037 34.2332L34.2333 59.1036C33.6481 59.6888 32.7704 59.6888 32.1852 59.1036L19.6037 46.5221C19.0185 45.9369 19.0185 45.0591 19.6037 44.474L44.4741 19.6036C45.0593 19.0184 45.937 19.0184 46.5222 19.6036L59.1037 32.1851C59.6889 32.7702 59.6889 33.648 59.1037 34.2332Z" fill="white"/>
<path fill-rule="evenodd" clip-rule="evenodd" d="M28.0888 46.8146C28.674 47.3998 28.674 48.2776 28.0888 48.8628C27.5037 49.448 26.6259 49.448 26.0407 48.8628C25.4555 48.2776 25.4555 47.3998 26.0407 46.8146C26.6259 46.2294 27.5037 46.2294 28.0888 46.8146Z" fill="white"/>
<path fill-rule="evenodd" clip-rule="evenodd" d="M30.1371 42.7185C29.5519 43.3037 28.6741 43.3037 28.0889 42.7185C27.5037 42.1333 27.5037 41.2555 28.0889 40.6703C28.6741 40.0851 29.5519 40.0851 30.1371 40.6703C30.7222 41.2555 30.7222 42.1333 30.1371 42.7185Z" fill="white"/>
<path fill-rule="evenodd" clip-rule="evenodd" d="M32.1852 50.9111C32.7703 51.4962 32.7703 52.374 32.1852 52.9592C31.6 53.5444 30.7222 53.5444 30.137 52.9592C29.5518 52.374 29.5518 51.4962 30.137 50.9111C30.7222 50.3259 31.6 50.3259 32.1852 50.9111Z" fill="white"/>
<path fill-rule="evenodd" clip-rule="evenodd" d="M34.2334 44.7665C34.8186 45.3517 34.8186 46.2295 34.2334 46.8147C33.6482 47.3999 32.7704 47.3999 32.1852 46.8147C31.6 46.2295 31.6 45.3517 32.1852 44.7665C32.7704 44.1813 33.6482 44.1813 34.2334 44.7665Z" fill="white"/>
<path fill-rule="evenodd" clip-rule="evenodd" d="M36.2815 40.6701C35.6963 41.2553 34.8185 41.2553 34.2333 40.6701C33.6481 40.085 33.6481 39.2072 34.2333 38.622C34.8185 38.0368 35.6963 38.0368 36.2815 38.622C36.8667 38.9146 36.8667 40.085 36.2815 40.6701Z" fill="white"/>
<path d="M37.4519 51.2035C38.2598 51.2035 38.9148 50.5485 38.9148 49.7406C38.9148 48.9326 38.2598 48.2776 37.4519 48.2776C36.6439 48.2776 35.9889 48.9326 35.9889 49.7406C35.9889 50.5485 36.6439 51.2035 37.4519 51.2035Z" fill="white"/>
<path d="M37.4519 34.8185C38.2598 34.8185 38.9148 34.1635 38.9148 33.3555C38.9148 32.5476 38.2598 31.8926 37.4519 31.8926C36.6439 31.8926 35.9889 32.5476 35.9889 33.3555C35.9889 34.1635 36.6439 34.8185 37.4519 34.8185Z" fill="white"/>
<path d="M39.5 45.0592C40.3079 45.0592 40.9629 44.4042 40.9629 43.5963C40.9629 42.7883 40.3079 42.1333 39.5 42.1333C38.692 42.1333 38.037 42.7883 38.037 43.5963C38.037 44.4042 38.692 45.0592 39.5 45.0592Z" fill="white"/>
<path d="M41.5482 38.9147C42.3561 38.9147 43.0111 38.2597 43.0111 37.4517C43.0111 36.6438 42.3561 35.9888 41.5482 35.9888C40.7402 35.9888 40.0852 36.6438 40.0852 37.4517C40.0852 38.2597 40.7402 38.9147 41.5482 38.9147Z" fill="white"/>
<path d="M43.5963 32.7702C44.4042 32.7702 45.0592 32.1152 45.0592 31.3072C45.0592 30.4992 44.4042 29.8442 43.5963 29.8442C42.7883 29.8442 42.1333 30.4992 42.1333 31.3072C42.1333 32.1152 42.7883 32.7702 43.5963 32.7702Z" fill="white"/>
<path fill-rule="evenodd" clip-rule="evenodd" d="M46.8148 40.6703C47.4 41.2555 47.4 42.1333 46.8148 42.7185C46.2296 43.3037 45.3518 43.3037 44.7666 42.7185C44.1815 42.1333 44.1815 41.2555 44.7666 40.6703C45.3518 40.0851 46.2296 40.0851 46.8148 40.6703Z" fill="white"/>
<path fill-rule="evenodd" clip-rule="evenodd" d="M44.7666 26.0407C44.1815 25.4556 44.1815 24.5778 44.7666 23.9926C45.3518 23.4074 46.2296 23.4074 46.8148 23.9926C47.4 24.5778 47.4 25.4556 46.8148 26.0407C46.2296 26.6259 45.3518 26.6259 44.7666 26.0407Z" fill="white"/>
<path fill-rule="evenodd" clip-rule="evenodd" d="M48.863 34.2333C49.4482 34.8185 49.4482 35.6963 48.863 36.2815C48.2778 36.8667 47.4001 36.8667 46.8149 36.2815C46.2297 35.6963 46.2297 34.8185 46.8149 34.2333C47.4001 33.6481 48.2778 33.6481 48.863 34.2333Z" fill="white"/>
<path d="M49.7408 30.7221C50.5488 30.7221 51.2038 30.0671 51.2038 29.2591C51.2038 28.4511 50.5488 27.7961 49.7408 27.7961C48.9328 27.7961 48.2778 28.4511 48.2778 29.2591C48.2778 30.0671 48.9328 30.7221 49.7408 30.7221Z" fill="white"/>
<path fill-rule="evenodd" clip-rule="evenodd" d="M55.0074 32.185C55.5926 32.7702 55.5926 33.6479 55.0074 34.2331C54.4222 34.8183 53.5445 34.8183 52.9593 34.2331C52.3741 33.6479 52.3741 32.7702 52.9593 32.185C53.5445 31.5998 54.4222 31.5998 55.0074 32.185Z" fill="white"/>
<path fill-rule="evenodd" clip-rule="evenodd" d="M61.1518 30.1369L48.5704 17.5554C46.8148 15.7999 44.1815 15.7999 42.4259 17.5554L17.5556 42.4258C15.8 44.1814 15.8 46.8147 17.5556 48.5702L30.137 61.1517C31.8926 62.9073 34.5259 62.9073 36.2815 61.1517L61.1518 36.2814C62.9074 34.5258 62.9074 31.8925 61.1518 30.1369ZM59.1037 34.2332L34.2333 59.1036C33.6481 59.6888 32.7704 59.6888 32.1852 59.1036L19.6037 46.5221C19.0185 45.9369 19.0185 45.0591 19.6037 44.474L44.4741 19.6036C45.0593 19.0184 45.937 19.0184 46.5222 19.6036L59.1037 32.1851C59.6889 32.7702 59.6889 33.648 59.1037 34.2332Z" fill="white"/>
<path fill-rule="evenodd" clip-rule="evenodd" d="M28.0888 46.8146C28.674 47.3998 28.674 48.2776 28.0888 48.8628C27.5037 49.448 26.6259 49.448 26.0407 48.8628C25.4555 48.2776 25.4555 47.3998 26.0407 46.8146C26.6259 46.2294 27.5037 46.2294 28.0888 46.8146Z" fill="white"/>
<path fill-rule="evenodd" clip-rule="evenodd" d="M30.1371 42.7185C29.5519 43.3037 28.6741 43.3037 28.0889 42.7185C27.5037 42.1333 27.5037 41.2555 28.0889 40.6703C28.6741 40.0851 29.5519 40.0851 30.1371 40.6703C30.7222 41.2555 30.7222 42.1333 30.1371 42.7185Z" fill="white"/>
<path fill-rule="evenodd" clip-rule="evenodd" d="M32.1852 50.9111C32.7703 51.4962 32.7703 52.374 32.1852 52.9592C31.6 53.5444 30.7222 53.5444 30.137 52.9592C29.5518 52.374 29.5518 51.4962 30.137 50.9111C30.7222 50.3259 31.6 50.3259 32.1852 50.9111Z" fill="white"/>
<path fill-rule="evenodd" clip-rule="evenodd" d="M34.2334 44.7665C34.8186 45.3517 34.8186 46.2295 34.2334 46.8147C33.6482 47.3999 32.7704 47.3999 32.1852 46.8147C31.6 46.2295 31.6 45.3517 32.1852 44.7665C32.7704 44.1813 33.6482 44.1813 34.2334 44.7665Z" fill="white"/>
<path fill-rule="evenodd" clip-rule="evenodd" d="M36.2815 40.6701C35.6963 41.2553 34.8185 41.2553 34.2333 40.6701C33.6481 40.085 33.6481 39.2072 34.2333 38.622C34.8185 38.0368 35.6963 38.0368 36.2815 38.622C36.8667 38.9146 36.8667 40.085 36.2815 40.6701Z" fill="white"/>
<path d="M37.4519 51.2035C38.2598 51.2035 38.9148 50.5485 38.9148 49.7406C38.9148 48.9326 38.2598 48.2776 37.4519 48.2776C36.6439 48.2776 35.9889 48.9326 35.9889 49.7406C35.9889 50.5485 36.6439 51.2035 37.4519 51.2035Z" fill="white"/>
<path d="M37.4519 34.8185C38.2598 34.8185 38.9148 34.1635 38.9148 33.3555C38.9148 32.5476 38.2598 31.8926 37.4519 31.8926C36.6439 31.8926 35.9889 32.5476 35.9889 33.3555C35.9889 34.1635 36.6439 34.8185 37.4519 34.8185Z" fill="white"/>
<path d="M39.5 45.0592C40.3079 45.0592 40.9629 44.4042 40.9629 43.5963C40.9629 42.7883 40.3079 42.1333 39.5 42.1333C38.692 42.1333 38.037 42.7883 38.037 43.5963C38.037 44.4042 38.692 45.0592 39.5 45.0592Z" fill="white"/>
<path d="M41.5482 38.9147C42.3561 38.9147 43.0111 38.2597 43.0111 37.4517C43.0111 36.6438 42.3561 35.9888 41.5482 35.9888C40.7402 35.9888 40.0852 36.6438 40.0852 37.4517C40.0852 38.2597 40.7402 38.9147 41.5482 38.9147Z" fill="white"/>
<path d="M43.5963 32.7702C44.4042 32.7702 45.0592 32.1152 45.0592 31.3072C45.0592 30.4992 44.4042 29.8442 43.5963 29.8442C42.7883 29.8442 42.1333 30.4992 42.1333 31.3072C42.1333 32.1152 42.7883 32.7702 43.5963 32.7702Z" fill="white"/>
<path fill-rule="evenodd" clip-rule="evenodd" d="M46.8148 40.6703C47.4 41.2555 47.4 42.1333 46.8148 42.7185C46.2296 43.3037 45.3518 43.3037 44.7666 42.7185C44.1815 42.1333 44.1815 41.2555 44.7666 40.6703C45.3518 40.0851 46.2296 40.0851 46.8148 40.6703Z" fill="white"/>
<path fill-rule="evenodd" clip-rule="evenodd" d="M44.7666 26.0407C44.1815 25.4556 44.1815 24.5778 44.7666 23.9926C45.3518 23.4074 46.2296 23.4074 46.8148 23.9926C47.4 24.5778 47.4 25.4556 46.8148 26.0407C46.2296 26.6259 45.3518 26.6259 44.7666 26.0407Z" fill="white"/>
<path fill-rule="evenodd" clip-rule="evenodd" d="M48.863 34.2333C49.4482 34.8185 49.4482 35.6963 48.863 36.2815C48.2778 36.8667 47.4001 36.8667 46.8149 36.2815C46.2297 35.6963 46.2297 34.8185 46.8149 34.2333C47.4001 33.6481 48.2778 33.6481 48.863 34.2333Z" fill="white"/>
<path d="M49.7408 30.7221C50.5488 30.7221 51.2038 30.0671 51.2038 29.2591C51.2038 28.4511 50.5488 27.7961 49.7408 27.7961C48.9328 27.7961 48.2778 28.4511 48.2778 29.2591C48.2778 30.0671 48.9328 30.7221 49.7408 30.7221Z" fill="white"/>
<path fill-rule="evenodd" clip-rule="evenodd" d="M55.0074 34.2331C54.4222 34.8183 53.5445 34.8183 52.9593 34.2331C52.3741 33.6479 52.3741 32.7702 52.9593 32.185C53.5445 31.5998 54.4222 31.5998 55.0074 32.185C55.5926 32.7702 55.5926 33.6479 55.0074 34.2331Z" fill="white"/>
<path d="M39.5 45.0592C40.3079 45.0592 40.9629 44.4042 40.9629 43.5963C40.9629 42.7883 40.3079 42.1333 39.5 42.1333C38.692 42.1333 38.037 42.7883 38.037 43.5963C38.037 44.4042 38.692 45.0592 39.5 45.0592Z" fill="white"/>
<path fill-rule="evenodd" clip-rule="evenodd" d="M46.8148 42.7185C46.2296 43.3037 45.3518 43.3037 44.7666 42.7185C44.1815 42.1333 44.1815 41.2555 44.7666 40.6703C45.3518 40.0851 46.2296 40.0851 46.8148 40.6703C47.4 41.2555 47.4 42.1333 46.8148 42.7185Z" fill="white"/>
<path fill-rule="evenodd" clip-rule="evenodd" d="M32.1852 52.9592C31.6 53.5444 30.7222 53.5444 30.137 52.9592C29.5518 52.374 29.5518 51.4962 30.137 50.9111C30.7222 50.3259 31.6 50.3259 32.1852 50.9111C32.7703 51.4962 32.7703 52.374 32.1852 52.9592Z" fill="white"/>
<path fill-rule="evenodd" clip-rule="evenodd" d="M55.0074 34.2331C54.4222 34.8183 53.5445 34.8183 52.9593 34.2331C52.3741 33.6479 52.3741 32.7702 52.9593 32.185C53.5445 31.5998 54.4222 31.5998 55.0074 32.185C55.5926 32.7702 55.5926 33.6479 55.0074 34.2331Z" fill="white"/>
<path fill-rule="evenodd" clip-rule="evenodd" d="M28.0888 48.8628C27.5037 49.448 26.6259 49.448 26.0407 48.8628C25.4555 48.2776 25.4555 47.3998 26.0407 46.8146C26.6259 46.2294 27.5037 46.2294 28.0888 46.8146C28.674 47.3998 28.674 48.2776 28.0888 48.8628Z" fill="white"/>
<path d="M37.4519 34.8185C38.2598 34.8185 38.9148 34.1635 38.9148 33.3555C38.9148 32.5476 38.2598 31.8926 37.4519 31.8926C36.6439 31.8926 35.9889 32.5476 35.9889 33.3555C35.9889 34.1635 36.6439 34.8185 37.4519 34.8185Z" fill="white"/>
<path fill-rule="evenodd" clip-rule="evenodd" d="M34.2334 46.8147C33.6482 47.3999 32.7704 47.3999 32.1852 46.8147C31.6 46.2295 31.6 45.3517 32.1852 44.7665C32.7704 44.1813 33.6482 44.1813 34.2334 44.7665C34.8186 45.3517 34.8186 46.2295 34.2334 46.8147Z" fill="white"/>
<path d="M43.5963 32.7702C44.4042 32.7702 45.0592 32.1152 45.0592 31.3072C45.0592 30.4992 44.4042 29.8442 43.5963 29.8442C42.7883 29.8442 42.1333 30.4992 42.1333 31.3072C42.1333 32.1152 42.7883 32.7702 43.5963 32.7702Z" fill="white"/>
<path fill-rule="evenodd" clip-rule="evenodd" d="M36.2815 40.6701C35.6963 41.2553 34.8185 41.2553 34.2333 40.6701C33.6481 40.085 33.6481 39.2072 34.2333 38.622C34.8185 38.0368 35.6963 38.0368 36.2815 38.622C36.8667 38.9146 36.8667 40.085 36.2815 40.6701Z" fill="white"/>
<path d="M37.4519 51.2035C38.2598 51.2035 38.9148 50.5485 38.9148 49.7406C38.9148 48.9326 38.2598 48.2776 37.4519 48.2776C36.6439 48.2776 35.9889 48.9326 35.9889 49.7406C35.9889 50.5485 36.6439 51.2035 37.4519 51.2035Z" fill="white"/>
<path fill-rule="evenodd" clip-rule="evenodd" d="M48.863 36.2815C48.2778 36.8667 47.4001 36.8667 46.8149 36.2815C46.2297 35.6963 46.2297 34.8185 46.8149 34.2333C47.4001 33.6481 48.2778 33.6481 48.863 34.2333C49.4482 34.8185 49.4482 35.6963 48.863 36.2815Z" fill="white"/>
<path d="M49.7408 30.7221C50.5488 30.7221 51.2038 30.0671 51.2038 29.2591C51.2038 28.4511 50.5488 27.7961 49.7408 27.7961C48.9328 27.7961 48.2778 28.4511 48.2778 29.2591C48.2778 30.0671 48.9328 30.7221 49.7408 30.7221Z" fill="white"/>
<path d="M41.5482 38.9147C42.3561 38.9147 43.0111 38.2597 43.0111 37.4517C43.0111 36.6438 42.3561 35.9888 41.5482 35.9888C40.7402 35.9888 40.0852 36.6438 40.0852 37.4517C40.0852 38.2597 40.7402 38.9147 41.5482 38.9147Z" fill="white"/>
<path fill-rule="evenodd" clip-rule="evenodd" d="M30.1371 42.7185C29.5519 43.3037 28.6741 43.3037 28.0889 42.7185C27.5037 42.1333 27.5037 41.2555 28.0889 40.6703C28.6741 40.0851 29.5519 40.0851 30.1371 40.6703C30.7222 41.2555 30.7222 42.1333 30.1371 42.7185Z" fill="white"/>
<path fill-rule="evenodd" clip-rule="evenodd" d="M46.8148 26.0407C46.2296 26.6259 45.3518 26.6259 44.7666 26.0407C44.1815 25.4556 44.1815 24.5778 44.7666 23.9926C45.3518 23.4074 46.2296 23.4074 46.8148 23.9926C47.4 24.5778 47.4 25.4556 46.8148 26.0407Z" fill="white"/>
</svg>
