<svg width="90" height="89" viewBox="0 0 90 89" fill="none" xmlns="http://www.w3.org/2000/svg">
<g clip-path="url(#clip0_692_108)">
<path fill-rule="evenodd" clip-rule="evenodd" id="path-blue" d="M11.26 77.17C10.7313 76.6425 10.0583 76.2834 9.32582 76.1381C8.59333 75.9927 7.83418 76.0675 7.14418 76.3532C6.45418 76.6388 5.86425 77.1224 5.44882 77.743C5.03339 78.3635 4.81108 79.0932 4.80995 79.84C4.78359 80.3521 4.86169 80.8642 5.03949 81.3451C5.2173 81.8261 5.4911 82.2658 5.84424 82.6376C6.19737 83.0094 6.62245 83.3055 7.09362 83.5078C7.56479 83.7101 8.07219 83.8144 8.58495 83.8144C9.09772 83.8144 9.60512 83.7101 10.0763 83.5078C10.5475 83.3055 10.9725 83.0094 11.3257 82.6376C11.6788 82.2658 11.9526 81.8261 12.1304 81.3451C12.3082 80.8642 12.3863 80.3521 12.36 79.84C12.3622 79.3444 12.2661 78.8532 12.0773 78.3949C11.8885 77.9366 11.6107 77.5203 11.26 77.17ZM9.55995 80.81C9.33607 81.0285 9.04374 81.163 8.73222 81.1911C8.4207 81.2192 8.10902 81.139 7.84971 80.9641C7.5904 80.7892 7.39931 80.5302 7.30862 80.2309C7.21794 79.9315 7.23321 79.6101 7.35187 79.3207C7.47053 79.0313 7.68531 78.7916 7.96004 78.6421C8.23476 78.4925 8.55263 78.4423 8.86009 78.4997C9.16755 78.5572 9.44581 78.7189 9.64797 78.9576C9.85013 79.1962 9.96385 79.4973 9.96995 79.81C9.973 79.9958 9.93822 80.1803 9.86773 80.3522C9.79725 80.5241 9.69253 80.6799 9.55995 80.81ZM11.26 77.17C10.7313 76.6425 10.0583 76.2834 9.32582 76.1381C8.59333 75.9927 7.83418 76.0675 7.14418 76.3532C6.45418 76.6388 5.86425 77.1224 5.44882 77.743C5.03339 78.3635 4.81108 79.0932 4.80995 79.84C4.78359 80.3521 4.86169 80.8642 5.03949 81.3451C5.2173 81.8261 5.4911 82.2658 5.84424 82.6376C6.19737 83.0094 6.62245 83.3055 7.09362 83.5078C7.56479 83.7101 8.07219 83.8144 8.58495 83.8144C9.09772 83.8144 9.60512 83.7101 10.0763 83.5078C10.5475 83.3055 10.9725 83.0094 11.3257 82.6376C11.6788 82.2658 11.9526 81.8261 12.1304 81.3451C12.3082 80.8642 12.3863 80.3521 12.36 79.84C12.3622 79.3444 12.2661 78.8532 12.0773 78.3949C11.8885 77.9366 11.6107 77.5203 11.26 77.17ZM9.55995 80.81C9.33607 81.0285 9.04374 81.163 8.73222 81.1911C8.4207 81.2192 8.10902 81.139 7.84971 80.9641C7.5904 80.7892 7.39931 80.5302 7.30862 80.2309C7.21794 79.9315 7.23321 79.6101 7.35187 79.3207C7.47053 79.0313 7.68531 78.7916 7.96004 78.6421C8.23476 78.4925 8.55263 78.4423 8.86009 78.4997C9.16755 78.5572 9.44581 78.7189 9.64797 78.9576C9.85013 79.1962 9.96385 79.4973 9.96995 79.81C9.973 79.9958 9.93822 80.1803 9.86773 80.3522C9.79725 80.5241 9.69253 80.6799 9.55995 80.81ZM11.26 77.17C10.7313 76.6425 10.0583 76.2834 9.32582 76.1381C8.59333 75.9927 7.83418 76.0675 7.14418 76.3532C6.45418 76.6388 5.86425 77.1224 5.44882 77.743C5.03339 78.3635 4.81108 79.0932 4.80995 79.84C4.78359 80.3521 4.86169 80.8642 5.03949 81.3451C5.2173 81.8261 5.4911 82.2658 5.84424 82.6376C6.19737 83.0094 6.62245 83.3055 7.09362 83.5078C7.56479 83.7101 8.07219 83.8144 8.58495 83.8144C9.09772 83.8144 9.60512 83.7101 10.0763 83.5078C10.5475 83.3055 10.9725 83.0094 11.3257 82.6376C11.6788 82.2658 11.9526 81.8261 12.1304 81.3451C12.3082 80.8642 12.3863 80.3521 12.36 79.84C12.3622 79.3444 12.2661 78.8532 12.0773 78.3949C11.8885 77.9366 11.6107 77.5203 11.26 77.17ZM9.55995 80.81C9.33607 81.0285 9.04374 81.163 8.73222 81.1911C8.4207 81.2192 8.10902 81.139 7.84971 80.9641C7.5904 80.7892 7.39931 80.5302 7.30862 80.2309C7.21794 79.9315 7.23321 79.6101 7.35187 79.3207C7.47053 79.0313 7.68531 78.7916 7.96004 78.6421C8.23476 78.4925 8.55263 78.4423 8.86009 78.4997C9.16755 78.5572 9.44581 78.7189 9.64797 78.9576C9.85013 79.1962 9.96385 79.4973 9.96995 79.81C9.973 79.9958 9.93822 80.1803 9.86773 80.3522C9.79725 80.5241 9.69253 80.6799 9.55995 80.81ZM11.26 77.17C10.7313 76.6425 10.0583 76.2834 9.32582 76.1381C8.59333 75.9927 7.83418 76.0675 7.14418 76.3532C6.45418 76.6388 5.86425 77.1224 5.44882 77.743C5.03339 78.3635 4.81108 79.0932 4.80995 79.84C4.78359 80.3521 4.86169 80.8642 5.03949 81.3451C5.2173 81.8261 5.4911 82.2658 5.84424 82.6376C6.19737 83.0094 6.62245 83.3055 7.09362 83.5078C7.56479 83.7101 8.07219 83.8144 8.58495 83.8144C9.09772 83.8144 9.60512 83.7101 10.0763 83.5078C10.5475 83.3055 10.9725 83.0094 11.3257 82.6376C11.6788 82.2658 11.9526 81.8261 12.1304 81.3451C12.3082 80.8642 12.3863 80.3521 12.36 79.84C12.3622 79.3444 12.2661 78.8532 12.0773 78.3949C11.8885 77.9366 11.6107 77.5203 11.26 77.17ZM9.55995 80.81C9.33607 81.0285 9.04374 81.163 8.73222 81.1911C8.4207 81.2192 8.10902 81.139 7.84971 80.9641C7.5904 80.7892 7.39931 80.5302 7.30862 80.2309C7.21794 79.9315 7.23321 79.6101 7.35187 79.3207C7.47053 79.0313 7.68531 78.7916 7.96004 78.6421C8.23476 78.4925 8.55263 78.4423 8.86009 78.4997C9.16755 78.5572 9.44581 78.7189 9.64797 78.9576C9.85013 79.1962 9.96385 79.4973 9.96995 79.81C9.973 79.9958 9.93822 80.1803 9.86773 80.3522C9.79725 80.5241 9.69253 80.6799 9.55995 80.81ZM89.81 53.52C89.6734 52.7894 89.3611 52.103 88.9 51.52C88.4091 50.8835 87.7514 50.3955 87 50.11C85.9813 49.7451 84.8844 49.6554 83.82 49.85C81.962 50.1901 80.1521 50.7542 78.43 51.53C73.87 53.44 66.78 57.18 59.63 61C58.511 60.3549 57.3443 59.7966 56.14 59.33C53.75 58.33 50.36 57.26 46.94 56.21C43.52 55.16 40.08 54.21 37.59 53.46C35.7683 52.857 33.898 52.4121 32 52.13C30.5012 52.0094 28.9959 52.2637 27.62 52.87C25.8217 53.6128 24.0657 54.4541 22.36 55.39C20.45 56.39 18.79 57.39 17.69 57.99L17.2 58.27V56.82C17.1986 56.2703 17.0889 55.7261 16.877 55.2189C16.6651 54.7116 16.3552 54.251 15.9651 53.8637C15.5749 53.4763 15.1122 53.1698 14.6034 52.9615C14.0946 52.7532 13.5497 52.6474 13 52.65H4.16995C3.06416 52.6515 2.00378 53.09 1.21995 53.87C0.82589 54.2628 0.514818 54.7307 0.305234 55.2461C0.0956501 55.7615 -0.0081675 56.3137 -4.60639e-05 56.87V83.91C-4.60639e-05 85.016 0.439292 86.0766 1.22132 86.8587C2.00335 87.6407 3.064 88.08 4.16995 88.08H13C14.1068 88.08 15.1685 87.641 15.9521 86.8593C16.7357 86.0775 17.1773 85.0169 17.18 83.91V83.61L19.9 84.74C21.6817 85.1544 23.5139 85.3094 25.34 85.2H43.75C44.5603 85.2052 45.3676 85.1009 46.15 84.89C46.9327 84.6937 47.6859 84.3944 48.39 84L53.17 81.29C59.86 77.5 73.23 69.93 80.37 65.52C82.7628 64.1255 85.0461 62.551 87.2 60.81C88.1503 60.0895 88.8782 59.1156 89.3 58C89.5868 57.2641 89.7784 56.4945 89.87 55.71C89.9599 54.9811 89.9397 54.2429 89.81 53.52ZM14.81 83.91C14.8087 84.1459 14.7607 84.3793 14.6689 84.5966C14.5771 84.8139 14.4433 85.011 14.2751 85.1764C14.1069 85.3418 13.9076 85.4723 13.6888 85.5605C13.47 85.6486 13.2359 85.6927 13 85.69H4.16995C3.69868 85.6874 3.24745 85.499 2.91421 85.1658C2.58096 84.8325 2.39258 84.3813 2.38995 83.91V56.82C2.38462 56.5829 2.42673 56.3472 2.51379 56.1266C2.60086 55.906 2.73113 55.705 2.89695 55.5354C3.06277 55.3659 3.2608 55.2312 3.47941 55.1392C3.69802 55.0473 3.9328 55 4.16995 55H13C13.472 55 13.9248 55.1876 14.2586 55.5214C14.5924 55.8552 14.78 56.3079 14.78 56.78L14.81 83.91ZM87.49 55.45C87.4212 56.0352 87.2802 56.6096 87.07 57.16C86.7841 57.892 86.2992 58.5294 85.67 59C83.6113 60.6507 81.4319 62.1449 79.15 63.47C72.1 67.8 58.71 75.38 52 79.17L47.22 81.87C46.6977 82.1782 46.1359 82.4137 45.55 82.57C44.9643 82.7141 44.363 82.7846 43.76 82.78H25.34C23.8213 82.8653 22.2978 82.7747 20.8 82.51L17.18 81V61L18.86 60C20.03 59.33 21.8 58.32 23.46 57.43C25.084 56.5411 26.7529 55.7367 28.46 55.02C29.4991 54.5591 30.6365 54.3632 31.77 54.45C33.5466 54.7314 35.2962 55.1629 37 55.74C39.51 56.45 42.95 57.44 46.29 58.47C49.63 59.5 52.98 60.59 55.29 61.53C56.7976 62.0571 58.2169 62.809 59.5 63.76C59.9295 64.0919 60.2499 64.5446 60.42 65.06C60.5502 65.423 60.6211 65.8045 60.63 66.19C60.6368 66.432 60.5853 66.6721 60.48 66.89C60.3732 67.0937 60.2188 67.2687 60.03 67.4C59.724 67.6046 59.386 67.7567 59.03 67.85C58.4659 67.9982 57.8824 68.0589 57.3 68.03C56.0727 67.9779 54.8518 67.824 53.65 67.57C50.29 66.93 44.84 65.57 42.12 64.84L39.39 64.15C39.2383 64.1113 39.0805 64.1028 38.9255 64.1251C38.7705 64.1473 38.6215 64.1999 38.4868 64.2797C38.3522 64.3596 38.2346 64.4652 38.1408 64.5905C38.0469 64.7158 37.9787 64.8584 37.94 65.01C37.9012 65.1617 37.8927 65.3195 37.915 65.4745C37.9372 65.6294 37.9898 65.7785 38.0696 65.9131C38.1495 66.0478 38.2551 66.1654 38.3804 66.2592C38.5057 66.353 38.6483 66.4213 38.8 66.46L41.53 67.16C44.25 67.86 49.7 69.25 53.21 69.91C54.5273 70.188 55.865 70.3585 57.21 70.42C58.0328 70.4516 58.8556 70.3571 59.65 70.14C60.2614 69.9681 60.8395 69.6942 61.36 69.33C61.8673 68.9908 62.2857 68.5347 62.58 68C62.8506 67.4497 62.9876 66.8433 62.98 66.23C62.9695 65.5891 62.8547 64.9541 62.64 64.35C62.4325 63.7152 62.0915 63.1321 61.64 62.64C68.44 59.03 75.07 55.54 79.28 53.78C80.8142 53.0761 82.4299 52.5655 84.09 52.26C84.7554 52.1209 85.4459 52.1623 86.09 52.38C86.4418 52.5046 86.7553 52.7182 87 53C87.2212 53.2941 87.3687 53.6371 87.43 54C87.5276 54.477 87.5478 54.9666 87.49 55.45ZM8.58995 76.06C7.58825 76.0627 6.62832 76.4618 5.92001 77.1701C5.21169 77.8784 4.81259 78.8383 4.80995 79.84C4.78359 80.3521 4.86169 80.8642 5.03949 81.3451C5.2173 81.8261 5.4911 82.2658 5.84424 82.6376C6.19737 83.0094 6.62245 83.3055 7.09362 83.5078C7.56479 83.7101 8.07219 83.8144 8.58495 83.8144C9.09772 83.8144 9.60512 83.7101 10.0763 83.5078C10.5475 83.3055 10.9725 83.0094 11.3257 82.6376C11.6788 82.2658 11.9526 81.8261 12.1304 81.3451C12.3082 80.8642 12.3863 80.3521 12.36 79.84C12.3613 79.3441 12.2647 78.8528 12.0759 78.3942C11.887 77.9357 11.6095 77.5189 11.2593 77.1678C10.9091 76.8166 10.493 76.538 10.035 76.348C9.57693 76.1579 9.08588 76.06 8.58995 76.06ZM9.58995 80.81C9.36607 81.0285 9.07374 81.163 8.76222 81.1911C8.4507 81.2192 8.13902 81.139 7.87971 80.9641C7.6204 80.7892 7.42931 80.5302 7.33862 80.2309C7.24794 79.9315 7.26321 79.6101 7.38187 79.3207C7.50053 79.0313 7.71531 78.7916 7.99004 78.6421C8.26476 78.4925 8.58263 78.4423 8.89009 78.4997C9.19755 78.5572 9.47581 78.7189 9.67797 78.9576C9.88013 79.1962 9.99385 79.4973 9.99995 79.81C9.99913 79.998 9.95965 80.1837 9.88395 80.3558C9.80825 80.5278 9.69797 80.6824 9.55995 80.81H9.58995ZM11.29 77.17C10.7613 76.6425 10.0883 76.2834 9.35582 76.1381C8.62333 75.9927 7.86418 76.0675 7.17418 76.3532C6.48418 76.6388 5.89425 77.1224 5.47882 77.743C5.06339 78.3635 4.84108 79.0932 4.83995 79.84C4.81359 80.3521 4.89169 80.8642 5.06949 81.3451C5.2473 81.8261 5.5211 82.2658 5.87424 82.6376C6.22737 83.0094 6.65245 83.3055 7.12362 83.5078C7.59479 83.7101 8.10219 83.8144 8.61495 83.8144C9.12772 83.8144 9.63512 83.7101 10.1063 83.5078C10.5775 83.3055 11.0025 83.0094 11.3557 82.6376C11.7088 82.2658 11.9826 81.8261 12.1604 81.3451C12.3382 80.8642 12.4163 80.3521 12.39 79.84C12.3882 79.3423 12.2874 78.8498 12.0934 78.3914C11.8994 77.933 11.6161 77.5178 11.26 77.17H11.29ZM9.58995 80.81C9.36607 81.0285 9.07374 81.163 8.76222 81.1911C8.4507 81.2192 8.13902 81.139 7.87971 80.9641C7.6204 80.7892 7.42931 80.5302 7.33862 80.2309C7.24794 79.9315 7.26321 79.6101 7.38187 79.3207C7.50053 79.0313 7.71531 78.7916 7.99004 78.6421C8.26476 78.4925 8.58263 78.4423 8.89009 78.4997C9.19755 78.5572 9.47581 78.7189 9.67797 78.9576C9.88013 79.1962 9.99385 79.4973 9.99995 79.81C9.99913 79.998 9.95965 80.1837 9.88395 80.3558C9.80825 80.5278 9.69797 80.6824 9.55995 80.81H9.58995ZM11.29 77.17C10.7613 76.6425 10.0883 76.2834 9.35582 76.1381C8.62333 75.9927 7.86418 76.0675 7.17418 76.3532C6.48418 76.6388 5.89425 77.1224 5.47882 77.743C5.06339 78.3635 4.84108 79.0932 4.83995 79.84C4.81359 80.3521 4.89169 80.8642 5.06949 81.3451C5.2473 81.8261 5.5211 82.2658 5.87424 82.6376C6.22737 83.0094 6.65245 83.3055 7.12362 83.5078C7.59479 83.7101 8.10219 83.8144 8.61495 83.8144C9.12772 83.8144 9.63512 83.7101 10.1063 83.5078C10.5775 83.3055 11.0025 83.0094 11.3557 82.6376C11.7088 82.2658 11.9826 81.8261 12.1604 81.3451C12.3382 80.8642 12.4163 80.3521 12.39 79.84C12.3882 79.3423 12.2874 78.8498 12.0934 78.3914C11.8994 77.933 11.6161 77.5178 11.26 77.17H11.29ZM9.58995 80.81C9.36607 81.0285 9.07374 81.163 8.76222 81.1911C8.4507 81.2192 8.13902 81.139 7.87971 80.9641C7.6204 80.7892 7.42931 80.5302 7.33862 80.2309C7.24794 79.9315 7.26321 79.6101 7.38187 79.3207C7.50053 79.0313 7.71531 78.7916 7.99004 78.6421C8.26476 78.4925 8.58263 78.4423 8.89009 78.4997C9.19755 78.5572 9.47581 78.7189 9.67797 78.9576C9.88013 79.1962 9.99385 79.4973 9.99995 79.81C9.99913 79.998 9.95965 80.1837 9.88395 80.3558C9.80825 80.5278 9.69797 80.6824 9.55995 80.81H9.58995ZM11.29 77.17C10.7613 76.6425 10.0883 76.2834 9.35582 76.1381C8.62333 75.9927 7.86418 76.0675 7.17418 76.3532C6.48418 76.6388 5.89425 77.1224 5.47882 77.743C5.06339 78.3635 4.84108 79.0932 4.83995 79.84C4.81359 80.3521 4.89169 80.8642 5.06949 81.3451C5.2473 81.8261 5.5211 82.2658 5.87424 82.6376C6.22737 83.0094 6.65245 83.3055 7.12362 83.5078C7.59479 83.7101 8.10219 83.8144 8.61495 83.8144C9.12772 83.8144 9.63512 83.7101 10.1063 83.5078C10.5775 83.3055 11.0025 83.0094 11.3557 82.6376C11.7088 82.2658 11.9826 81.8261 12.1604 81.3451C12.3382 80.8642 12.4163 80.3521 12.39 79.84C12.3882 79.3423 12.2874 78.8498 12.0934 78.3914C11.8994 77.933 11.6161 77.5178 11.26 77.17H11.29ZM9.58995 80.81C9.36607 81.0285 9.07374 81.163 8.76222 81.1911C8.4507 81.2192 8.13902 81.139 7.87971 80.9641C7.6204 80.7892 7.42931 80.5302 7.33862 80.2309C7.24794 79.9315 7.26321 79.6101 7.38187 79.3207C7.50053 79.0313 7.71531 78.7916 7.99004 78.6421C8.26476 78.4925 8.58263 78.4423 8.89009 78.4997C9.19755 78.5572 9.47581 78.7189 9.67797 78.9576C9.88013 79.1962 9.99385 79.4973 9.99995 79.81C9.99913 79.998 9.95965 80.1837 9.88395 80.3558C9.80825 80.5278 9.69797 80.6824 9.55995 80.81H9.58995ZM11.29 77.17C10.7613 76.6425 10.0883 76.2834 9.35582 76.1381C8.62333 75.9927 7.86418 76.0675 7.17418 76.3532C6.48418 76.6388 5.89425 77.1224 5.47882 77.743C5.06339 78.3635 4.84108 79.0932 4.83995 79.84C4.81359 80.3521 4.89169 80.8642 5.06949 81.3451C5.2473 81.8261 5.5211 82.2658 5.87424 82.6376C6.22737 83.0094 6.65245 83.3055 7.12362 83.5078C7.59479 83.7101 8.10219 83.8144 8.61495 83.8144C9.12772 83.8144 9.63512 83.7101 10.1063 83.5078C10.5775 83.3055 11.0025 83.0094 11.3557 82.6376C11.7088 82.2658 11.9826 81.8261 12.1604 81.3451C12.3382 80.8642 12.4163 80.3521 12.39 79.84C12.3882 79.3423 12.2874 78.8498 12.0934 78.3914C11.8994 77.933 11.6161 77.5178 11.26 77.17H11.29ZM9.58995 80.81C9.36607 81.0285 9.07374 81.163 8.76222 81.1911C8.4507 81.2192 8.13902 81.139 7.87971 80.9641C7.6204 80.7892 7.42931 80.5302 7.33862 80.2309C7.24794 79.9315 7.26321 79.6101 7.38187 79.3207C7.50053 79.0313 7.71531 78.7916 7.99004 78.6421C8.26476 78.4925 8.58263 78.4423 8.89009 78.4997C9.19755 78.5572 9.47581 78.7189 9.67797 78.9576C9.88013 79.1962 9.99385 79.4973 9.99995 79.81C9.99913 79.998 9.95965 80.1837 9.88395 80.3558C9.80825 80.5278 9.69797 80.6824 9.55995 80.81H9.58995ZM11.29 77.17C10.7613 76.6425 10.0883 76.2834 9.35582 76.1381C8.62333 75.9927 7.86418 76.0675 7.17418 76.3532C6.48418 76.6388 5.89425 77.1224 5.47882 77.743C5.06339 78.3635 4.84108 79.0932 4.83995 79.84C4.81359 80.3521 4.89169 80.8642 5.06949 81.3451C5.2473 81.8261 5.5211 82.2658 5.87424 82.6376C6.22737 83.0094 6.65245 83.3055 7.12362 83.5078C7.59479 83.7101 8.10219 83.8144 8.61495 83.8144C9.12772 83.8144 9.63512 83.7101 10.1063 83.5078C10.5775 83.3055 11.0025 83.0094 11.3557 82.6376C11.7088 82.2658 11.9826 81.8261 12.1604 81.3451C12.3382 80.8642 12.4163 80.3521 12.39 79.84C12.3882 79.3423 12.2874 78.8498 12.0934 78.3914C11.8994 77.933 11.6161 77.5178 11.26 77.17H11.29ZM9.58995 80.81C9.36607 81.0285 9.07374 81.163 8.76222 81.1911C8.4507 81.2192 8.13902 81.139 7.87971 80.9641C7.6204 80.7892 7.42931 80.5302 7.33862 80.2309C7.24794 79.9315 7.26321 79.6101 7.38187 79.3207C7.50053 79.0313 7.71531 78.7916 7.99004 78.6421C8.26476 78.4925 8.58263 78.4423 8.89009 78.4997C9.19755 78.5572 9.47581 78.7189 9.67797 78.9576C9.88013 79.1962 9.99385 79.4973 9.99995 79.81C9.99913 79.998 9.95965 80.1837 9.88395 80.3558C9.80825 80.5278 9.69797 80.6824 9.55995 80.81H9.58995ZM11.29 77.17C10.7613 76.6425 10.0883 76.2834 9.35582 76.1381C8.62333 75.9927 7.86418 76.0675 7.17418 76.3532C6.48418 76.6388 5.89425 77.1224 5.47882 77.743C5.06339 78.3635 4.84108 79.0932 4.83995 79.84C4.81359 80.3521 4.89169 80.8642 5.06949 81.3451C5.2473 81.8261 5.5211 82.2658 5.87424 82.6376C6.22737 83.0094 6.65245 83.3055 7.12362 83.5078C7.59479 83.7101 8.10219 83.8144 8.61495 83.8144C9.12772 83.8144 9.63512 83.7101 10.1063 83.5078C10.5775 83.3055 11.0025 83.0094 11.3557 82.6376C11.7088 82.2658 11.9826 81.8261 12.1604 81.3451C12.3382 80.8642 12.4163 80.3521 12.39 79.84C12.3882 79.3423 12.2874 78.8498 12.0934 78.3914C11.8994 77.933 11.6161 77.5178 11.26 77.17H11.29ZM9.58995 80.81C9.36607 81.0285 9.07374 81.163 8.76222 81.1911C8.4507 81.2192 8.13902 81.139 7.87971 80.9641C7.6204 80.7892 7.42931 80.5302 7.33862 80.2309C7.24794 79.9315 7.26321 79.6101 7.38187 79.3207C7.50053 79.0313 7.71531 78.7916 7.99004 78.6421C8.26476 78.4925 8.58263 78.4423 8.89009 78.4997C9.19755 78.5572 9.47581 78.7189 9.67797 78.9576C9.88013 79.1962 9.99385 79.4973 9.99995 79.81C9.99913 79.998 9.95965 80.1837 9.88395 80.3558C9.80825 80.5278 9.69797 80.6824 9.55995 80.81H9.58995ZM11.29 77.17C10.7613 76.6425 10.0883 76.2834 9.35582 76.1381C8.62333 75.9927 7.86418 76.0675 7.17418 76.3532C6.48418 76.6388 5.89425 77.1224 5.47882 77.743C5.06339 78.3635 4.84108 79.0932 4.83995 79.84C4.81359 80.3521 4.89169 80.8642 5.06949 81.3451C5.2473 81.8261 5.5211 82.2658 5.87424 82.6376C6.22737 83.0094 6.65245 83.3055 7.12362 83.5078C7.59479 83.7101 8.10219 83.8144 8.61495 83.8144C9.12772 83.8144 9.63512 83.7101 10.1063 83.5078C10.5775 83.3055 11.0025 83.0094 11.3557 82.6376C11.7088 82.2658 11.9826 81.8261 12.1604 81.3451C12.3382 80.8642 12.4163 80.3521 12.39 79.84C12.3882 79.3423 12.2874 78.8498 12.0934 78.3914C11.8994 77.933 11.6161 77.5178 11.26 77.17H11.29ZM9.58995 80.81C9.36607 81.0285 9.07374 81.163 8.76222 81.1911C8.4507 81.2192 8.13902 81.139 7.87971 80.9641C7.6204 80.7892 7.42931 80.5302 7.33862 80.2309C7.24794 79.9315 7.26321 79.6101 7.38187 79.3207C7.50053 79.0313 7.71531 78.7916 7.99004 78.6421C8.26476 78.4925 8.58263 78.4423 8.89009 78.4997C9.19755 78.5572 9.47581 78.7189 9.67797 78.9576C9.88013 79.1962 9.99385 79.4973 9.99995 79.81C9.99913 79.998 9.95965 80.1837 9.88395 80.3558C9.80825 80.5278 9.69797 80.6824 9.55995 80.81H9.58995ZM11.29 77.17C10.7613 76.6425 10.0883 76.2834 9.35582 76.1381C8.62333 75.9927 7.86418 76.0675 7.17418 76.3532C6.48418 76.6388 5.89425 77.1224 5.47882 77.743C5.06339 78.3635 4.84108 79.0932 4.83995 79.84C4.81359 80.3521 4.89169 80.8642 5.06949 81.3451C5.2473 81.8261 5.5211 82.2658 5.87424 82.6376C6.22737 83.0094 6.65245 83.3055 7.12362 83.5078C7.59479 83.7101 8.10219 83.8144 8.61495 83.8144C9.12772 83.8144 9.63512 83.7101 10.1063 83.5078C10.5775 83.3055 11.0025 83.0094 11.3557 82.6376C11.7088 82.2658 11.9826 81.8261 12.1604 81.3451C12.3382 80.8642 12.4163 80.3521 12.39 79.84C12.3882 79.3423 12.2874 78.8498 12.0934 78.3914C11.8994 77.933 11.6161 77.5178 11.26 77.17H11.29ZM9.58995 80.81C9.36607 81.0285 9.07374 81.163 8.76222 81.1911C8.4507 81.2192 8.13902 81.139 7.87971 80.9641C7.6204 80.7892 7.42931 80.5302 7.33862 80.2309C7.24794 79.9315 7.26321 79.6101 7.38187 79.3207C7.50053 79.0313 7.71531 78.7916 7.99004 78.6421C8.26476 78.4925 8.58263 78.4423 8.89009 78.4997C9.19755 78.5572 9.47581 78.7189 9.67797 78.9576C9.88013 79.1962 9.99385 79.4973 9.99995 79.81C9.99913 79.998 9.95965 80.1837 9.88395 80.3558C9.80825 80.5278 9.69797 80.6824 9.55995 80.81H9.58995ZM11.29 77.17C10.7613 76.6425 10.0883 76.2834 9.35582 76.1381C8.62333 75.9927 7.86418 76.0675 7.17418 76.3532C6.48418 76.6388 5.89425 77.1224 5.47882 77.743C5.06339 78.3635 4.84108 79.0932 4.83995 79.84C4.81359 80.3521 4.89169 80.8642 5.06949 81.3451C5.2473 81.8261 5.5211 82.2658 5.87424 82.6376C6.22737 83.0094 6.65245 83.3055 7.12362 83.5078C7.59479 83.7101 8.10219 83.8144 8.61495 83.8144C9.12772 83.8144 9.63512 83.7101 10.1063 83.5078C10.5775 83.3055 11.0025 83.0094 11.3557 82.6376C11.7088 82.2658 11.9826 81.8261 12.1604 81.3451C12.3382 80.8642 12.4163 80.3521 12.39 79.84C12.3882 79.3423 12.2874 78.8498 12.0934 78.3914C11.8994 77.933 11.6161 77.5178 11.26 77.17H11.29ZM9.58995 80.81C9.36607 81.0285 9.07374 81.163 8.76222 81.1911C8.4507 81.2192 8.13902 81.139 7.87971 80.9641C7.6204 80.7892 7.42931 80.5302 7.33862 80.2309C7.24794 79.9315 7.26321 79.6101 7.38187 79.3207C7.50053 79.0313 7.71531 78.7916 7.99004 78.6421C8.26476 78.4925 8.58263 78.4423 8.89009 78.4997C9.19755 78.5572 9.47581 78.7189 9.67797 78.9576C9.88013 79.1962 9.99385 79.4973 9.99995 79.81C9.99913 79.998 9.95965 80.1837 9.88395 80.3558C9.80825 80.5278 9.69797 80.6824 9.55995 80.81H9.58995ZM11.29 77.17C10.7613 76.6425 10.0883 76.2834 9.35582 76.1381C8.62333 75.9927 7.86418 76.0675 7.17418 76.3532C6.48418 76.6388 5.89425 77.1224 5.47882 77.743C5.06339 78.3635 4.84108 79.0932 4.83995 79.84C4.81359 80.3521 4.89169 80.8642 5.06949 81.3451C5.2473 81.8261 5.5211 82.2658 5.87424 82.6376C6.22737 83.0094 6.65245 83.3055 7.12362 83.5078C7.59479 83.7101 8.10219 83.8144 8.61495 83.8144C9.12772 83.8144 9.63512 83.7101 10.1063 83.5078C10.5775 83.3055 11.0025 83.0094 11.3557 82.6376C11.7088 82.2658 11.9826 81.8261 12.1604 81.3451C12.3382 80.8642 12.4163 80.3521 12.39 79.84C12.3882 79.3423 12.2874 78.8498 12.0934 78.3914C11.8994 77.933 11.6161 77.5178 11.26 77.17H11.29ZM9.58995 80.81C9.36607 81.0285 9.07374 81.163 8.76222 81.1911C8.4507 81.2192 8.13902 81.139 7.87971 80.9641C7.6204 80.7892 7.42931 80.5302 7.33862 80.2309C7.24794 79.9315 7.26321 79.6101 7.38187 79.3207C7.50053 79.0313 7.71531 78.7916 7.99004 78.6421C8.26476 78.4925 8.58263 78.4423 8.89009 78.4997C9.19755 78.5572 9.47581 78.7189 9.67797 78.9576C9.88013 79.1962 9.99385 79.4973 9.99995 79.81C9.99913 79.998 9.95965 80.1837 9.88395 80.3558C9.80825 80.5278 9.69797 80.6824 9.55995 80.81H9.58995Z"/>
<path fill-rule="evenodd" clip-rule="evenodd" id="path-blue" d="M81.49 15C81.4507 14.7489 81.3327 14.5168 81.153 14.337C80.9732 14.1573 80.7411 14.0393 80.49 14C77.1169 13.3986 73.6683 13.3513 70.28 13.86C69.6504 9.89034 67.9454 6.169 65.35 3.10001C65.1904 2.90706 64.974 2.76936 64.7316 2.70652C64.4893 2.64368 64.2332 2.6589 64 2.75001C61.9097 3.53236 59.9506 4.62823 58.19 6.00001C56.8675 7.01454 55.6543 8.16407 54.57 9.43001C52.311 5.8054 49.3413 2.67583 45.84 0.230011C45.6358 0.088512 45.3934 0.0126953 45.145 0.0126953C44.8966 0.0126953 44.6541 0.088512 44.45 0.230011C40.9193 2.68419 37.9252 5.83143 35.65 9.48001C34.5576 8.19631 33.3343 7.03 32 6.00001C30.28 4.6353 28.3566 3.54877 26.3 2.78001C26.0648 2.67602 25.8023 2.65099 25.5517 2.70868C25.3012 2.76636 25.076 2.90366 24.91 3.10001C23.4517 4.82512 22.2679 6.76451 21.4 8.85001C20.6977 10.5189 20.2072 12.2692 19.94 14.06C16.2434 13.3899 12.4565 13.3899 8.75999 14.06C8.50889 14.0993 8.27675 14.2173 8.09703 14.397C7.91731 14.5768 7.79929 14.8089 7.75999 15.06C6.8648 20.063 7.18721 25.2079 8.69999 30.06C10.2212 34.9059 12.8982 39.3091 16.5 42.89C22.68 49.06 33.69 52.15 44.65 52.15C55.61 52.15 66.65 49.06 72.79 42.89C76.3868 39.2909 79.0573 34.8733 80.5726 30.0158C82.0878 25.1583 82.4026 20.0058 81.49 15ZM59.64 7.86001C60.9969 6.81989 62.4826 5.95943 64.06 5.30001C66.1166 7.93548 67.4721 11.049 68 14.35C64.6184 15.1135 61.3853 16.4277 58.43 18.24C57.8337 15.942 56.9817 13.7182 55.89 11.61C56.9746 10.2049 58.2349 8.94464 59.64 7.86001ZM23.64 9.77001C24.2925 8.17367 25.1533 6.67064 26.2 5.30001C27.7499 5.95456 29.2059 6.81205 30.53 7.85001C31.9705 8.96216 33.2641 10.2524 34.38 11.69C33.2207 13.9387 32.3376 16.3193 31.75 18.78C28.8502 16.8649 25.6538 15.4424 22.29 14.57C22.521 12.9209 22.9612 11.3079 23.6 9.77001H23.64ZM18.2 41.19C14.9709 37.9729 12.5457 34.04 11.121 29.7103C9.69626 25.3805 9.31221 20.7759 9.99999 16.27C13.5426 15.7379 17.1529 15.8633 20.65 16.64H20.76L21.06 16.71C24.7177 17.5687 28.1747 19.1274 31.24 21.3C31.0065 22.8726 30.8895 24.4602 30.89 26.05C30.8825 31.1253 32.1112 36.1261 34.47 40.62C36.2628 44.0258 38.6621 47.0758 41.55 49.62C32.25 49.17 23.34 46.34 18.2 41.19ZM36.59 39.54C33.6162 33.8452 32.6106 27.3263 33.73 21C33.73 21 33.73 20.95 33.73 20.93C34.2429 18.013 35.2043 15.1929 36.58 12.57C36.65 12.42 36.73 12.28 36.81 12.14V12.08C38.8525 8.36436 41.6776 5.13664 45.09 2.62001C48.4947 5.11241 51.3194 8.31237 53.37 12V12.07L53.64 12.57C56.8577 18.7237 57.7655 25.8262 56.199 32.5913C54.6324 39.3565 50.6951 45.3371 45.1 49.45C41.5528 46.8302 38.6436 43.4424 36.59 39.54ZM78.28 29.34C76.8804 33.8149 74.4127 37.882 71.09 41.19C66.09 46.19 57.7 48.95 48.77 49.61C52.7736 46.0535 55.8054 41.5358 57.5795 36.483C59.3536 31.4302 59.8115 26.0088 58.91 20.73C61.9043 18.7776 65.2282 17.385 68.72 16.62C72.1891 15.8599 75.7681 15.7413 79.28 16.27C79.9443 20.6461 79.6023 25.116 78.28 29.34Z"/>
</g>
<defs>
<clipPath id="clip0_692_108">
<rect width="89.93" height="88.08" fill="white"/>
</clipPath>
</defs>
</svg>
