<svg width="75" height="96" viewBox="0 0 75 96" fill="none" xmlns="http://www.w3.org/2000/svg">
<path d="M56.9 64.94L51.05 54.81C51.22 54.68 51.35 54.44 51.51 54.31L50.41 52.31L49.87 52.77L49.52 52.17C48 49.51 45.67 48 43.16 48H31.58C29.07 48 26.75 49.52 25.22 52.17L24.87 52.77L24 52L22.91 54C23.18 54.23 23.4 54.56 23.68 54.78L17.84 64.94C17.4964 65.1638 17.089 65.2692 16.68 65.24L15.82 67.18C16.02 67.24 16.13 67.51 16.34 67.54L15.57 68.87L3.86 75.63C2.74356 76.2745 1.92822 77.3354 1.59268 78.5801C1.25714 79.8247 1.42879 81.1517 2.07 82.27C2.38818 82.8238 2.81241 83.3094 3.31842 83.6992C3.82443 84.0889 4.40229 84.3751 5.01897 84.5413C5.63565 84.7076 6.27906 84.7506 6.91239 84.668C7.54572 84.5854 8.15657 84.3788 8.71 84.06L9.77 83.45C9.71 83.67 9.65 83.9 9.61 84.13C9.46038 84.9821 9.48053 85.8554 9.6693 86.6997C9.85807 87.544 10.2117 88.3427 10.71 89.05C11.2068 89.7663 11.8426 90.3754 12.5796 90.8409C13.3166 91.3065 14.1397 91.619 15 91.76L34.22 95.15C34.5996 95.2176 34.9844 95.2511 35.37 95.25C36.0502 95.2403 36.7248 95.1256 37.37 94.91C38.0377 95.1321 38.7364 95.2469 39.44 95.25C39.8222 95.2515 40.2038 95.218 40.58 95.15L59.8 91.76C61.5199 91.455 63.0488 90.4807 64.0516 89.0505C65.0544 87.6203 65.4494 85.8509 65.15 84.13C65.15 83.9 65.05 83.67 64.99 83.45L66.05 84.06C66.7827 84.4837 67.6136 84.7078 68.46 84.71C68.8921 84.7076 69.3222 84.6505 69.74 84.54C70.6695 84.2909 71.5042 83.7714 72.1382 83.0474C72.7721 82.3233 73.1769 81.4274 73.3011 80.4731C73.4254 79.5188 73.2635 78.5491 72.836 77.6869C72.4086 76.8247 71.7348 76.1088 70.9 75.63L59.17 68.88L58.4 67.55C58.55 67.55 58.68 67.41 58.83 67.38L57.58 65.19C57.3391 65.152 57.1081 65.0671 56.9 64.94ZM39.5 89.43C39.3025 90.538 38.6736 91.5224 37.7513 92.1673C36.8289 92.8122 35.6884 93.0649 34.58 92.87L15.36 89.48C14.3201 89.2891 13.3887 88.7175 12.7476 87.8768C12.1066 87.036 11.8019 85.9865 11.8931 84.9332C11.9843 83.8799 12.4649 82.8983 13.2409 82.1803C14.017 81.4623 15.0328 81.0593 16.09 81.05C16.3384 81.0485 16.5863 81.072 16.83 81.12L36.05 84.51C37.1586 84.7076 38.1438 85.3361 38.7903 86.2581C39.4368 87.18 39.6919 88.3204 39.5 89.43ZM17.7 78.88L21.34 76.78C22.1766 76.349 22.871 75.6858 23.34 74.87L24.61 72.67V80.1L17.7 78.88ZM62.12 87.73C61.8021 88.1888 61.3961 88.5797 60.9257 88.8802C60.4553 89.1806 59.9299 89.3845 59.38 89.48L40.38 92.82C41.2878 91.7148 41.807 90.3417 41.8576 88.9123C41.9082 87.483 41.4874 86.0767 40.66 84.91C40.4932 84.6736 40.3094 84.4496 40.11 84.24L57.9 81.11C59.0096 80.9181 60.15 81.1732 61.0719 81.8197C61.9939 82.4662 62.6224 83.4514 62.82 84.56C62.9241 85.1082 62.9157 85.6719 62.7954 86.2169C62.6751 86.7618 62.4453 87.2766 62.12 87.73ZM50.12 80.1V72.67L51.39 74.87C51.8569 75.685 52.5521 76.3455 53.39 76.77L57 78.87L50.12 80.1ZM69.73 77.68C70.0216 77.8423 70.2781 78.061 70.4846 78.3233C70.691 78.5856 70.8433 78.8862 70.9326 79.2079C71.0219 79.5295 71.0464 79.8656 71.0046 80.1968C70.9629 80.528 70.8558 80.8476 70.6896 81.137C70.5234 81.4264 70.3013 81.68 70.0362 81.8829C69.7712 82.0858 69.4685 82.234 69.1457 82.3189C68.8229 82.4039 68.4864 82.4238 68.1559 82.3777C67.8253 82.3315 67.5072 82.2201 67.22 82.05L54.54 74.74H54.47C54.0252 74.5193 53.6562 74.1712 53.41 73.74L48.22 64.74C48.045 64.5188 47.796 64.3683 47.5189 64.3162C47.2418 64.264 46.9551 64.3137 46.7117 64.4561C46.4683 64.5985 46.2845 64.824 46.1941 65.0912C46.1038 65.3583 46.113 65.6491 46.22 65.91L47.79 68.64V80.54L38.3 82.21C37.9907 82.2653 37.6863 82.3455 37.39 82.45C37.0922 82.3502 36.7883 82.27 36.48 82.21L27 80.51V68.61L28.57 65.88C28.677 65.6191 28.6862 65.3283 28.5959 65.0612C28.5055 64.794 28.3217 64.5685 28.0783 64.4261C27.8349 64.2837 27.5482 64.234 27.2711 64.2862C26.994 64.3383 26.745 64.4888 26.57 64.71L21.38 73.71C21.1315 74.1393 20.7631 74.4869 20.32 74.71H20.25L7.51 82C6.94352 82.2444 6.30709 82.2724 5.7213 82.0789C5.13551 81.8853 4.64107 81.4836 4.33168 80.9499C4.02228 80.4162 3.91942 79.7875 4.0426 79.183C4.16578 78.5785 4.50643 78.0401 5 77.67L17 70.75C17.1806 70.6495 17.3295 70.5006 17.43 70.32L27.24 53.32C27.89 52.2 29.31 50.32 31.57 50.32H43.13C45.4 50.32 46.82 52.2 47.46 53.32L57.27 70.32C57.3705 70.5006 57.5194 70.6495 57.7 70.75L69.73 77.68Z" fill="white"/>
<path d="M74.5 33.0898C74.3989 32.1837 74.0104 31.3338 73.3914 30.6644C72.7724 29.9951 71.9554 29.5414 71.06 29.3698C68.36 28.8398 66.45 27.5398 65.68 25.6898C64.91 23.8398 65.34 21.5598 66.89 19.2698C67.3898 18.5229 67.6406 17.637 67.6065 16.739C67.5723 15.8409 67.2551 14.9766 66.7 14.2698C64.9046 11.9961 62.8508 9.93893 60.58 8.1398C59.8686 7.56953 58.9926 7.24319 58.0814 7.20898C57.1703 7.17476 56.2722 7.43449 55.52 7.9498C53.23 9.4998 50.95 9.9498 49.1 9.1598C47.25 8.3698 45.93 6.4198 45.41 3.6998C45.2409 2.80404 44.7895 1.98592 44.122 1.36514C43.4544 0.744369 42.6057 0.353525 41.7 0.249801C38.8096 -0.0832671 35.8905 -0.0832671 33 0.249801C32.101 0.360001 31.2605 0.753893 30.6005 1.37429C29.9406 1.99468 29.4955 2.80928 29.33 3.6998C28.81 6.4198 27.5 8.3398 25.64 9.1098C23.78 9.8798 21.51 9.4498 19.22 7.8998C18.4672 7.38602 17.5695 7.12722 16.6587 7.16142C15.748 7.19562 14.8722 7.52101 14.16 8.0898C11.8752 9.88655 9.8079 11.9438 8.00002 14.2198C7.44499 14.9266 7.12771 15.7909 7.09359 16.689C7.05946 17.587 7.31023 18.4729 7.81002 19.2198C9.36002 21.5098 9.81002 23.7898 9.02002 25.6398C8.23002 27.4898 6.35002 28.7898 3.64002 29.3198C2.74518 29.5031 1.93246 29.968 1.32071 30.6463C0.708965 31.3246 0.330276 32.1808 0.240021 33.0898C-0.080007 35.9342 -0.080007 38.8054 0.240021 41.6498C0.341161 42.5559 0.729653 43.4058 1.34864 44.0752C1.96763 44.7445 2.78461 45.1982 3.68002 45.3698C6.38002 45.8998 8.29002 47.1998 9.06002 49.0498C9.83002 50.8998 9.40002 53.1798 7.85002 55.4698C7.33297 56.2174 7.06861 57.1108 7.0956 58.0194C7.12259 58.928 7.4395 59.8042 8.00002 60.5198C9.79544 62.7935 11.8492 64.8507 14.12 66.6498C14.7984 67.0532 15.5332 67.3531 16.3 67.5398L17.8 64.9398C17.42 64.9398 15.89 65.0798 15.57 64.8198C13.4404 63.1319 11.5142 61.2023 9.83002 59.0698C9.57081 58.7481 9.4229 58.351 9.40848 57.9381C9.39406 57.5252 9.5139 57.1188 9.75002 56.7798C11.75 53.7798 12.26 50.7798 11.18 48.1498C10.1 45.5198 7.59002 43.7498 4.09002 43.0698C3.68389 42.9948 3.31277 42.7908 3.03175 42.4882C2.75073 42.1856 2.57478 41.8004 2.53002 41.3898C2.23231 38.7314 2.23231 36.0482 2.53002 33.3898C2.57163 32.9781 2.74651 32.5912 3.02808 32.288C3.30965 31.9848 3.68252 31.7818 4.09002 31.7098C7.59002 31.0298 10.09 29.2198 11.18 26.6298C12.27 24.0398 11.75 20.9598 9.75002 17.9998C9.51544 17.6602 9.39655 17.254 9.41096 16.8416C9.42537 16.4291 9.57232 16.0322 9.83002 15.7098C11.5142 13.5773 13.4404 11.6477 15.57 9.9598C15.8922 9.69828 16.2904 9.54816 16.705 9.53193C17.1197 9.51571 17.5284 9.63425 17.87 9.8698C20.87 11.8698 23.87 12.3898 26.5 11.3098C29.13 10.2298 31 7.6698 31.63 4.1498C31.702 3.7423 31.905 3.36943 32.2082 3.08786C32.5115 2.80629 32.8983 2.63141 33.31 2.5898C36.0078 2.27976 38.7322 2.27976 41.43 2.5898C41.8417 2.63141 42.2286 2.80629 42.5318 3.08786C42.8351 3.36943 43.0381 3.7423 43.11 4.1498C43.79 7.6698 45.59 10.1498 48.2 11.2798C50.81 12.4098 53.87 11.8498 56.83 9.8398C57.171 9.60268 57.5801 9.48318 57.9951 9.49942C58.4101 9.51566 58.8086 9.66676 59.13 9.9298C61.2596 11.6177 63.1859 13.5473 64.87 15.6798C65.1423 15.9992 65.3023 16.3989 65.3258 16.8179C65.3493 17.2369 65.2349 17.652 65 17.9998C63 20.9998 62.49 23.9998 63.57 26.6298C64.65 29.2598 67.16 31.0298 70.66 31.7098C71.0662 31.7848 71.4373 31.9888 71.7183 32.2914C71.9993 32.594 72.1753 32.9792 72.22 33.3898C72.5227 36.0479 72.5227 38.7317 72.22 41.3898C72.1784 41.8015 72.0035 42.1884 71.722 42.4916C71.4404 42.7948 71.0675 42.9979 70.66 43.0698C67.16 43.7498 64.66 45.5598 63.57 48.1498C62.48 50.7398 63 53.8198 65 56.7798C65.2346 57.1194 65.3535 57.5256 65.3391 57.938C65.3247 58.3505 65.1777 58.7474 64.92 59.0698C63.2358 61.2023 61.3096 63.1319 59.18 64.8198C58.74 65.1598 57.46 65.0098 56.95 64.9398C57.32 65.5698 58.09 66.8498 58.45 67.5498C59.2236 67.3844 59.9617 67.083 60.63 66.6598C62.9008 64.8607 64.9546 62.8035 66.75 60.5298C67.3165 59.8185 67.6405 58.9447 67.6747 58.036C67.7089 57.1274 67.4515 56.2316 66.94 55.4798C65.39 53.1898 64.94 50.9098 65.73 49.0598C66.52 47.2098 68.4 45.9098 71.11 45.3798C72.0048 45.2067 72.8209 44.7526 73.4396 44.0835C74.0584 43.4144 74.4474 42.5653 74.55 41.6598C74.8534 38.8102 74.8367 35.9356 74.5 33.0898Z" fill="white"/>
<path d="M40.24 55.1399C39.1848 55.1441 38.1662 55.5274 37.37 56.2199C36.7391 55.6682 35.9624 55.31 35.1331 55.1883C34.3039 55.0666 33.4571 55.1865 32.6942 55.5336C31.9313 55.8808 31.2846 56.4405 30.8316 57.1457C30.3786 57.8509 30.1385 58.6717 30.14 59.5099C30.14 62.4299 33.02 64.9499 35.34 66.9799C35.79 67.3699 36.22 67.7499 36.56 68.0699C36.7802 68.2744 37.0695 68.3881 37.37 68.3881C37.6705 68.3881 37.9599 68.2744 38.18 68.0699C38.52 67.7399 38.95 67.3699 39.4 66.9799C41.71 64.9799 44.6 62.4299 44.6 59.5099C44.5974 58.3534 44.1375 57.2449 43.3207 56.4263C42.5039 55.6076 41.3965 55.1452 40.24 55.1399ZM37.85 65.2199L37.37 65.6399L36.89 65.2199C35.03 63.5999 32.49 61.3699 32.49 59.5099C32.4755 59.0478 32.6215 58.5949 32.9032 58.2283C33.1849 57.8617 33.5849 57.604 34.0352 57.4991C34.4855 57.3942 34.9582 57.4485 35.373 57.6529C35.7877 57.8572 36.1188 58.1989 36.31 58.6199C36.4065 58.8161 36.556 58.9814 36.7415 59.0969C36.9271 59.2125 37.1414 59.2738 37.36 59.2738C37.5787 59.2738 37.7929 59.2125 37.9785 59.0969C38.1641 58.9814 38.3136 58.8161 38.41 58.6199C38.6012 58.1989 38.9323 57.8572 39.3471 57.6529C39.7618 57.4485 40.2345 57.3942 40.6848 57.4991C41.1351 57.604 41.5351 57.8617 41.8169 58.2283C42.0986 58.5949 42.2446 59.0478 42.23 59.5099C42.25 61.3699 39.71 63.5899 37.85 65.2199Z" fill="white"/>
<path d="M37.37 28.3799C35.59 28.3799 33.8499 28.9077 32.3699 29.8967C30.8898 30.8856 29.7363 32.2912 29.0551 33.9357C28.3739 35.5803 28.1957 37.3899 28.5429 39.1357C28.8902 40.8815 29.7474 42.4852 31.006 43.7438C32.2647 45.0025 33.8684 45.8597 35.6142 46.207C37.36 46.5542 39.1696 46.376 40.8142 45.6948C42.4587 45.0136 43.8643 43.8601 44.8532 42.38C45.8422 40.9 46.37 39.1599 46.37 37.3799C46.37 34.9929 45.4218 32.7037 43.734 31.0159C42.0461 29.3281 39.7569 28.3799 37.37 28.3799ZM37.37 44.0299C36.0515 44.0358 34.7609 43.6503 33.6618 42.9221C32.5626 42.1939 31.7043 41.1558 31.1956 39.9394C30.6869 38.723 30.5508 37.383 30.8043 36.0891C31.0579 34.7952 31.6898 33.6057 32.62 32.6713C33.5503 31.7368 34.7369 31.0996 36.0296 30.8401C37.3223 30.5807 38.663 30.7108 39.8817 31.214C41.1004 31.7172 42.1423 32.5708 42.8755 33.6667C43.6086 34.7626 44 36.0514 44 37.3699C43.9895 39.125 43.2876 40.8053 42.0465 42.0464C40.8054 43.2875 39.1251 43.9894 37.37 43.9999V44.0299Z" fill="white"/>
<path d="M59.54 37.3699C59.54 31.4901 57.2042 25.8511 53.0465 21.6934C48.8888 17.5357 43.2498 15.2 37.3699 15.2C31.4901 15.2 25.8511 17.5357 21.6934 21.6934C17.5357 25.8511 15.2 31.4901 15.2 37.3699C15.2 43.8099 18.87 50.62 23.69 54.81L24.87 52.7599C20.79 48.9999 17.54 42.9999 17.54 37.3699C17.54 32.1107 19.6292 27.0669 23.348 23.348C27.0669 19.6292 32.1107 17.54 37.3699 17.54C42.6292 17.54 47.673 19.6292 51.3919 23.348C55.1107 27.0669 57.2 32.1107 57.2 37.3699C57.0972 40.3004 56.3935 43.1786 55.1327 45.8259C53.8718 48.4733 52.0805 50.8334 49.8699 52.7599L51.0499 54.81C53.6218 52.6721 55.7091 50.0112 57.173 47.0042C58.6368 43.9972 59.4437 40.713 59.54 37.3699Z" fill="white"/>
</svg>
