<svg xmlns="http://www.w3.org/2000/svg" viewBox="0 0 159.91 55.99"><defs><style>.cls-1{fill:#122235;}.cls-2{fill:#16bad3;}</style></defs><g id="Layer_2" data-name="Layer 2"><g id="Layer_1-2" data-name="Layer 1"><path class="cls-1" d="M92.52,16.1a3.86,3.86,0,0,1-.34,1.62,3.57,3.57,0,0,1-2.36,2,3,3,0,0,1-.93.17,4.33,4.33,0,0,1-2.38-.69V19a2.75,2.75,0,0,0,2.27-.92A3.08,3.08,0,0,0,89.52,16a3.07,3.07,0,0,0-.63-2.07,2.22,2.22,0,0,0-1.75-.73H85.89V24.07a1.15,1.15,0,0,0,.36.83,1.14,1.14,0,0,0,.84.34h.25v.19H81.66v-.19h.25a1.12,1.12,0,0,0,.83-.34,1.15,1.15,0,0,0,.36-.83V13.64a1,1,0,0,0-.36-.78,1.24,1.24,0,0,0-.84-.31h-.25v-.19h6.24a5.27,5.27,0,0,1,3.43,1A3.53,3.53,0,0,1,92.52,16.1Z"/><path class="cls-1" d="M102.87,25.24a1,1,0,0,0,.75-.25,1.37,1.37,0,0,0,.45-.92V19.32H98v4.74a1.13,1.13,0,0,0,.36.82,1.14,1.14,0,0,0,.84.35h.22l0,.18H93.78v-.18H94a1.1,1.1,0,0,0,.83-.35,1.13,1.13,0,0,0,.36-.82V13.72a1.26,1.26,0,0,0-.36-.83,1.16,1.16,0,0,0-.83-.34h-.25v-.19h5.68l0,.19h-.22a1.17,1.17,0,0,0-.84.34,1.15,1.15,0,0,0-.36.83V18.5h6V13.72a1.25,1.25,0,0,0-.35-.83,1.16,1.16,0,0,0-.83-.34h-.25v-.19h5.66v.19h-.25a1.14,1.14,0,0,0-.84.34,1.15,1.15,0,0,0-.36.83V24.06a1.13,1.13,0,0,0,.36.82,1.11,1.11,0,0,0,.84.35h.25v.18h-5.68v-.18h.25Z"/><path class="cls-1" d="M122.77,12.55h-.26a2,2,0,0,0-1.06.31,2.66,2.66,0,0,0-.8.76L117,19.49v4.57a1.21,1.21,0,0,0,1.2,1.17h.22l0,.18h-5.68v-.18H113a1.21,1.21,0,0,0,1.19-1.17v-4.6l-3.56-5.87a2.42,2.42,0,0,0-.8-.75,2,2,0,0,0-1.06-.31h-.26v-.19h6.17v.19h-.25a.69.69,0,0,0-.63.38.76.76,0,0,0-.11.4.89.89,0,0,0,.09.39l2.67,4.85,2.77-4.85a.87.87,0,0,0,.1-.39.79.79,0,0,0-.13-.39.7.7,0,0,0-.64-.39h-.22v-.19h4.45v.21Z"/><path class="cls-1" d="M123.09,23.7a4.28,4.28,0,0,1,.57-2.29h.17a2.81,2.81,0,0,0,0,.29,3.16,3.16,0,0,0,.92,2.25,3.34,3.34,0,0,0,2.53,1,2.94,2.94,0,0,0,1.94-.59,1.9,1.9,0,0,0,.71-1.51,1.45,1.45,0,0,0-.35-1,4.64,4.64,0,0,0-1.15-.95l-3.24-2.15a3.53,3.53,0,0,1-1.81-3,2.22,2.22,0,0,1,0-.37A3.33,3.33,0,0,1,124.55,13a4.12,4.12,0,0,1,2.78-.88,22.22,22.22,0,0,1,2.54.18H131l-.25,2.75h-.19a1.91,1.91,0,0,0-.71-1.56,3,3,0,0,0-1.92-.59,2.45,2.45,0,0,0-2.11.88,1.45,1.45,0,0,0-.34.86,1.58,1.58,0,0,0,.17.74,3.18,3.18,0,0,0,1.14,1l3.55,2.31a3.29,3.29,0,0,1,1.69,2.87,3.57,3.57,0,0,1-1.36,3,5.64,5.64,0,0,1-3.59,1.06,8.58,8.58,0,0,1-2.33-.31,3.49,3.49,0,0,1-1.58-.82A2.79,2.79,0,0,1,123.09,23.7Z"/><path class="cls-1" d="M133.86,25.24a1.13,1.13,0,0,0,.83-.34,1.15,1.15,0,0,0,.36-.83V13.72a1.26,1.26,0,0,0-.36-.83,1.17,1.17,0,0,0-.83-.34h-.25v-.19h5.68l0,.19h-.21a1.18,1.18,0,0,0-.85.34,1.12,1.12,0,0,0-.36.83V24.07a1.15,1.15,0,0,0,.36.83,1.18,1.18,0,0,0,.85.34h.21l0,.19h-5.68v-.19Z"/><path class="cls-1" d="M142.56,13.93a8.77,8.77,0,0,1,10.7,0,6.38,6.38,0,0,1,2,5,6.37,6.37,0,0,1-2,5,8.74,8.74,0,0,1-10.7,0,6.4,6.4,0,0,1-2-5A6.38,6.38,0,0,1,142.56,13.93Zm2.22,9.36a3.84,3.84,0,0,0,6.25,0,7.41,7.41,0,0,0,1.16-4.4A7.4,7.4,0,0,0,151,14.5a3.84,3.84,0,0,0-6.25,0,7.4,7.4,0,0,0-1.16,4.39A7.41,7.41,0,0,0,144.78,23.29Z"/><path class="cls-1" d="M85.89,31.83v5.43h2.46a1.57,1.57,0,0,0,1.14-.47A1.52,1.52,0,0,0,90,35.65v-.17h.18v4.31H90v-.16a1.52,1.52,0,0,0-.44-1.14A1.65,1.65,0,0,0,88.4,38H85.91V42.7a1.13,1.13,0,0,0,.35.83,1.18,1.18,0,0,0,.85.34h.22v.19H81.65v-.19h.25a1.2,1.2,0,0,0,1.18-1.17V32.32a1,1,0,0,0-.6-1,1.33,1.33,0,0,0-.58-.16h-.25V31h7.14a7.16,7.16,0,0,0,1.26-.11,7.44,7.44,0,0,0,1-.22v3.15h-.19v-.19a1.77,1.77,0,0,0-.48-1.31,1.79,1.79,0,0,0-1.29-.51H85.89Z"/><path class="cls-1" d="M93,43.9a1.09,1.09,0,0,0,.83-.34,1.13,1.13,0,0,0,.36-.83V32.38a1.29,1.29,0,0,0-.36-.83,1.21,1.21,0,0,0-.83-.34h-.25V31h5.68l0,.19H98.2a1.18,1.18,0,0,0-.85.34,1.12,1.12,0,0,0-.36.83V42.73A1.2,1.2,0,0,0,98.2,43.9h.21l0,.19H92.75V43.9Z"/><path class="cls-1" d="M106.8,31.79V42.73a1.26,1.26,0,0,0,.36.83,1.17,1.17,0,0,0,.83.34h.22v.19h-5.67V43.9h.25a1.08,1.08,0,0,0,.81-.34,1.27,1.27,0,0,0,.39-.79v-11h-2.51a1.8,1.8,0,0,0-1.86,1.9v.22h-.19V30.68a6,6,0,0,0,2.2.34h7.52a7.16,7.16,0,0,0,1.26-.11,5.76,5.76,0,0,0,.94-.21v3.24h-.19v-.22a1.74,1.74,0,0,0-.87-1.64,2.19,2.19,0,0,0-1-.26H106.8Z"/><path class="cls-1" d="M126.84,31.21a1.08,1.08,0,0,0-1,.56,1.37,1.37,0,0,0-.17.56V42a11.3,11.3,0,0,0,.17,2.11l.06.28h-.17l-9.42-9v7.41a1,1,0,0,0,.35.8,1.08,1.08,0,0,0,.79.32h.36v.19h-5.65V43.9h.35a1.14,1.14,0,0,0,1.17-1.13V33.08a11.6,11.6,0,0,0-.17-2.06l0-.28h.18l9.42,9V32.33a1.17,1.17,0,0,0-.36-.81,1.11,1.11,0,0,0-.8-.33h-.34V31h5.64v.18h-.39Z"/><path class="cls-1" d="M128.47,43.9a1.07,1.07,0,0,0,.82-.34,1.1,1.1,0,0,0,.36-.83V32.35a1,1,0,0,0-.28-.7,1.34,1.34,0,0,0-.92-.41h-.25v-.19h7.14a6.55,6.55,0,0,0,1.52-.14,4,4,0,0,0,.73-.2V34l-.19,0v-.2a1.72,1.72,0,0,0-.86-1.64,2.11,2.11,0,0,0-1-.26h-3.14v5.43h2.47a1.62,1.62,0,0,0,1.14-.49,1.59,1.59,0,0,0,.45-1.12V35.5h.18v4.3h-.18v-.15a1.51,1.51,0,0,0-.44-1.14A1.61,1.61,0,0,0,135,38h-2.49v5.24h2.45a3.46,3.46,0,0,0,2.29-.78,4.48,4.48,0,0,0,1.37-2.21h.19l-.86,3.8h-9.67V43.9Z"/><path class="cls-1" d="M140.15,42.36a4.3,4.3,0,0,1,.57-2.29h.18a1.42,1.42,0,0,0,0,.29,3.16,3.16,0,0,0,.92,2.25,3.33,3.33,0,0,0,2.53,1,3,3,0,0,0,1.95-.6,1.92,1.92,0,0,0,.7-1.51,1.47,1.47,0,0,0-.35-1,4.87,4.87,0,0,0-1.15-1l-3.24-2.15a3.56,3.56,0,0,1-1.81-3,2.31,2.31,0,0,1,0-.37,3.31,3.31,0,0,1,1.15-2.37,4.07,4.07,0,0,1,2.78-.89,20.27,20.27,0,0,1,2.54.19h1.17l-.25,2.74h-.19a1.91,1.91,0,0,0-.71-1.56,3,3,0,0,0-1.92-.59,2.43,2.43,0,0,0-2.11.89,1.4,1.4,0,0,0-.34.86,1.51,1.51,0,0,0,.17.73,3.1,3.1,0,0,0,1.14,1l3.56,2.31a3.31,3.31,0,0,1,1.68,2.87,3.59,3.59,0,0,1-1.36,3,5.69,5.69,0,0,1-3.58,1.06,8.22,8.22,0,0,1-2.34-.32,3.49,3.49,0,0,1-1.58-.82A2.52,2.52,0,0,1,140.15,42.36Z"/><path class="cls-1" d="M150.92,42.36a4.31,4.31,0,0,1,.58-2.29h.17a2.81,2.81,0,0,0,0,.29,3.16,3.16,0,0,0,.92,2.25,3.32,3.32,0,0,0,2.52,1,3,3,0,0,0,2-.6,1.89,1.89,0,0,0,.7-1.51,1.46,1.46,0,0,0-.34-1,5.09,5.09,0,0,0-1.15-1L153,37.4a3.56,3.56,0,0,1-1.81-3,2.33,2.33,0,0,1,0-.37,3.28,3.28,0,0,1,1.15-2.37,4.07,4.07,0,0,1,2.78-.89,20.54,20.54,0,0,1,2.54.19h1.17l-.25,2.74h-.19a1.89,1.89,0,0,0-.72-1.56,3,3,0,0,0-1.92-.59,2.42,2.42,0,0,0-2.1.89,1.4,1.4,0,0,0-.34.86,1.51,1.51,0,0,0,.17.73,3,3,0,0,0,1.14,1l3.55,2.31a3.3,3.3,0,0,1,1.69,2.87,3.62,3.62,0,0,1-1.36,3A5.72,5.72,0,0,1,155,44.36a8.32,8.32,0,0,1-2.34-.32,3.5,3.5,0,0,1-1.57-.82A2.78,2.78,0,0,1,150.92,42.36Z"/><path class="cls-2" d="M72.25,10.15a9.32,9.32,0,0,0-4.93-1.24H7.81L7.68,9,6.35,16.07H51.28A14.48,14.48,0,0,1,57,17.12q5.25,2.26,4.28,7.46a13.73,13.73,0,0,1-2.4,5.17Q54.73,35.6,45.26,41.09H59.57a25,25,0,0,0,10-8.28,29,29,0,0,0,5.75-12.23Q76.79,13,72.25,10.15Z"/><path class="cls-2" d="M26.76,56h0A13.53,13.53,0,0,0,39.48,45.27l5-26.86H33.8Z"/><path class="cls-1" d="M29.07,17.87,27.73,25H15.32L12.72,38.1a13.31,13.31,0,0,1-4.56,7.59A12.82,12.82,0,0,1,0,48.82L6,17.87Z"/><polygon class="cls-1" points="9.3 0 9.13 0.1 7.8 7.15 36.54 7.15 52.2 0 9.3 0"/></g></g></svg>